<svg width="1050" height="823" viewBox="0 0 1050 823" fill="none" xmlns="http://www.w3.org/2000/svg">
<g opacity="0.7">
<path d="M345.679 -406.014L-381 486.324M371.632 -420L-355.047 472.338M376.822 -406.014L-349.857 486.324M402.775 -420L-323.904 472.338M407.966 -406.014L-318.713 486.324M433.918 -420L-292.76 472.338M439.109 -406.014L-287.57 486.324M465.062 -420L-261.617 472.338M467.657 -406.014L-259.022 486.324M493.61 -420L-233.069 472.338M498.8 -406.014L-227.878 486.324M524.753 -420L-201.926 472.338M529.944 -406.014L-196.735 486.324M555.897 -420L-170.782 472.338M561.087 -406.014L-165.592 486.324M587.04 -420L-139.639 472.338M522.158 -322.095L-204.521 570.243M548.111 -336.081L-178.568 556.257M553.301 -322.095L-173.377 570.243M579.254 -336.081L-147.425 556.257M584.445 -322.095L-142.234 570.243M610.397 -336.081L-116.281 556.257M615.588 -322.095L-111.091 570.243M641.541 -336.081L-85.1379 556.257M644.136 -322.095L-82.5426 570.243M670.089 -336.081L-56.5898 556.257M675.28 -322.095L-51.3993 570.243M701.232 -336.081L-25.4465 556.257M706.423 -322.095L-20.2559 570.243M732.376 -336.081L5.69692 556.257M737.566 -322.095L10.8875 570.243M763.519 -336.081L36.8403 556.257M631.16 -154.257L-95.5191 738.081M657.113 -168.243L-69.5662 724.095M662.303 -154.257L-64.3757 738.081M688.256 -168.243L-38.4229 724.095M693.446 -154.257L-33.2323 738.081M719.399 -168.243L-7.27948 724.095M724.59 -154.257L-2.08892 738.081M750.543 -168.243L23.8639 724.095M753.138 -154.257L26.4592 738.081M779.091 -168.243L52.412 724.095M784.281 -154.257L57.6026 738.081M810.234 -168.243L83.5554 724.095M815.425 -154.257L88.7459 738.081M841.378 -168.243L114.699 724.095M846.568 -154.257L119.889 738.081M872.521 -168.243L145.842 724.095M807.639 -70.3378L80.9601 822M833.592 -84.3243L106.913 808.013M838.782 -70.3378L112.103 822M864.735 -84.3243L138.056 808.013M869.926 -70.3378L143.247 822M895.878 -84.3243L169.2 808.013M901.069 -70.3378L174.39 822M927.022 -84.3243L200.343 808.013M929.617 -70.3378L202.938 822M955.57 -84.3243L228.891 808.013M960.76 -70.3378L234.082 822M986.713 -84.3243L260.034 808.013M991.904 -70.3378L265.225 822M1017.86 -84.3243L291.178 808.013M1023.05 -70.3378L296.368 822M1049 -84.3243L322.321 808.013" stroke="url(#paint0_linear_2097_279)"/>
<path d="M345.679 -406.014L-381 486.324M371.632 -420L-355.047 472.338M376.822 -406.014L-349.857 486.324M402.775 -420L-323.904 472.338M407.966 -406.014L-318.713 486.324M433.918 -420L-292.76 472.338M439.109 -406.014L-287.57 486.324M465.062 -420L-261.617 472.338M467.657 -406.014L-259.022 486.324M493.61 -420L-233.069 472.338M498.8 -406.014L-227.878 486.324M524.753 -420L-201.926 472.338M529.944 -406.014L-196.735 486.324M555.897 -420L-170.782 472.338M561.087 -406.014L-165.592 486.324M587.04 -420L-139.639 472.338M522.158 -322.095L-204.521 570.243M548.111 -336.081L-178.568 556.257M553.301 -322.095L-173.377 570.243M579.254 -336.081L-147.425 556.257M584.445 -322.095L-142.234 570.243M610.397 -336.081L-116.281 556.257M615.588 -322.095L-111.091 570.243M641.541 -336.081L-85.1379 556.257M644.136 -322.095L-82.5426 570.243M670.089 -336.081L-56.5898 556.257M675.28 -322.095L-51.3993 570.243M701.232 -336.081L-25.4465 556.257M706.423 -322.095L-20.2559 570.243M732.376 -336.081L5.69692 556.257M737.566 -322.095L10.8875 570.243M763.519 -336.081L36.8403 556.257M631.16 -154.257L-95.5191 738.081M657.113 -168.243L-69.5662 724.095M662.303 -154.257L-64.3757 738.081M688.256 -168.243L-38.4229 724.095M693.446 -154.257L-33.2323 738.081M719.399 -168.243L-7.27948 724.095M724.59 -154.257L-2.08892 738.081M750.543 -168.243L23.8639 724.095M753.138 -154.257L26.4592 738.081M779.091 -168.243L52.412 724.095M784.281 -154.257L57.6026 738.081M810.234 -168.243L83.5554 724.095M815.425 -154.257L88.7459 738.081M841.378 -168.243L114.699 724.095M846.568 -154.257L119.889 738.081M872.521 -168.243L145.842 724.095M807.639 -70.3378L80.9601 822M833.592 -84.3243L106.913 808.013M838.782 -70.3378L112.103 822M864.735 -84.3243L138.056 808.013M869.926 -70.3378L143.247 822M895.878 -84.3243L169.2 808.013M901.069 -70.3378L174.39 822M927.022 -84.3243L200.343 808.013M929.617 -70.3378L202.938 822M955.57 -84.3243L228.891 808.013M960.76 -70.3378L234.082 822M986.713 -84.3243L260.034 808.013M991.904 -70.3378L265.225 822M1017.86 -84.3243L291.178 808.013M1023.05 -70.3378L296.368 822M1049 -84.3243L322.321 808.013" stroke="url(#paint1_linear_2097_279)" stroke-opacity="0.5"/>
<path d="M345.679 -406.014L-381 486.324M371.632 -420L-355.047 472.338M376.822 -406.014L-349.857 486.324M402.775 -420L-323.904 472.338M407.966 -406.014L-318.713 486.324M433.918 -420L-292.76 472.338M439.109 -406.014L-287.57 486.324M465.062 -420L-261.617 472.338M467.657 -406.014L-259.022 486.324M493.61 -420L-233.069 472.338M498.8 -406.014L-227.878 486.324M524.753 -420L-201.926 472.338M529.944 -406.014L-196.735 486.324M555.897 -420L-170.782 472.338M561.087 -406.014L-165.592 486.324M587.04 -420L-139.639 472.338M522.158 -322.095L-204.521 570.243M548.111 -336.081L-178.568 556.257M553.301 -322.095L-173.377 570.243M579.254 -336.081L-147.425 556.257M584.445 -322.095L-142.234 570.243M610.397 -336.081L-116.281 556.257M615.588 -322.095L-111.091 570.243M641.541 -336.081L-85.1379 556.257M644.136 -322.095L-82.5426 570.243M670.089 -336.081L-56.5898 556.257M675.28 -322.095L-51.3993 570.243M701.232 -336.081L-25.4465 556.257M706.423 -322.095L-20.2559 570.243M732.376 -336.081L5.69692 556.257M737.566 -322.095L10.8875 570.243M763.519 -336.081L36.8403 556.257M631.16 -154.257L-95.5191 738.081M657.113 -168.243L-69.5662 724.095M662.303 -154.257L-64.3757 738.081M688.256 -168.243L-38.4229 724.095M693.446 -154.257L-33.2323 738.081M719.399 -168.243L-7.27948 724.095M724.59 -154.257L-2.08892 738.081M750.543 -168.243L23.8639 724.095M753.138 -154.257L26.4592 738.081M779.091 -168.243L52.412 724.095M784.281 -154.257L57.6026 738.081M810.234 -168.243L83.5554 724.095M815.425 -154.257L88.7459 738.081M841.378 -168.243L114.699 724.095M846.568 -154.257L119.889 738.081M872.521 -168.243L145.842 724.095M807.639 -70.3378L80.9601 822M833.592 -84.3243L106.913 808.013M838.782 -70.3378L112.103 822M864.735 -84.3243L138.056 808.013M869.926 -70.3378L143.247 822M895.878 -84.3243L169.2 808.013M901.069 -70.3378L174.39 822M927.022 -84.3243L200.343 808.013M929.617 -70.3378L202.938 822M955.57 -84.3243L228.891 808.013M960.76 -70.3378L234.082 822M986.713 -84.3243L260.034 808.013M991.904 -70.3378L265.225 822M1017.86 -84.3243L291.178 808.013M1023.05 -70.3378L296.368 822M1049 -84.3243L322.321 808.013" stroke="url(#paint2_linear_2097_279)"/>
</g>
<defs>
<linearGradient id="paint0_linear_2097_279" x1="1047.05" y1="-86.1696" x2="258.35" y2="747.492" gradientUnits="userSpaceOnUse">
<stop stop-color="#222836"/>
<stop offset="0.52" stop-color="#295738"/>
<stop offset="1" stop-color="#222836"/>
</linearGradient>
<linearGradient id="paint1_linear_2097_279" x1="233.537" y1="130.144" x2="338.807" y2="351.264" gradientUnits="userSpaceOnUse">
<stop stop-color="#5DEC8E"/>
<stop offset="1"/>
</linearGradient>
<linearGradient id="paint2_linear_2097_279" x1="334" y1="608" x2="334" y2="822" gradientUnits="userSpaceOnUse">
<stop stop-opacity="0"/>
<stop offset="1" stop-color="#222836"/>
</linearGradient>
</defs>
</svg>
