<svg width="465" height="384" viewBox="0 0 465 384" fill="none" xmlns="http://www.w3.org/2000/svg">
<path d="M219.715 66.392C187.102 53.126 133.635 39.5879 133.635 39.5879C133.635 39.5879 138.369 59.9215 140.003 73.1692C140.958 80.921 141.083 85.3109 141.697 93.0973C144.675 130.885 143.731 152.235 146.427 190.045C148.066 213.028 146.805 226.26 151.425 248.833C156.046 271.406 160.157 280.708 160.157 280.708C160.157 280.708 211.82 294.808 246.81 302.445C283.103 310.367 340.183 320.6 340.183 320.6C340.183 320.6 322.998 297.028 315.658 280.032C305.035 255.433 304.982 254.816 301.484 213.655L301.344 212L292.025 102.396C292.025 102.396 248.936 78.2779 219.715 66.392Z" fill="#29E568"/>
<path d="M161.965 140.049L155.484 63.8237L216.602 86.2267L279.436 117.015L284.646 178.294L299.043 270.907L313.763 308.294L173.401 274.564L167.923 251.445L165.212 219.56L161.965 140.049Z" fill="#06895D"/>
<path d="M184.908 96.9504C180.985 100.197 172.039 99.048 172.039 99.048C172.039 99.048 175.083 147.117 176.739 177.933C178.186 204.858 180.093 246.897 180.093 246.897C180.093 246.897 193.957 248.283 200.243 253.715C213.241 264.946 209.993 273.962 209.993 273.962L278.743 291.701C278.743 291.701 277.723 283.282 280.716 279.49C283.322 276.188 290.341 274.657 290.341 274.657C290.341 274.657 279.7 233.215 276.482 206.085C273.397 180.076 273.795 139.072 273.795 139.072C273.795 139.072 263.049 135.383 259.454 129.753C256.586 125.261 256.318 116.471 256.318 116.471L189.583 87.0186C189.583 87.0186 188.21 94.2172 184.908 96.9504Z" fill="#09A867"/>
<path d="M264.22 197.593C263.994 236.251 260.474 250.601 241.764 252.192C216.356 254.352 197.944 220.757 195.066 186.913C192.189 153.07 204.992 129.867 223.702 128.277C242.412 126.686 261.342 163.75 264.22 197.593Z" fill="#29E568"/>
<path d="M74.4961 104.331L133.639 38.584C133.639 38.584 138.875 57.3279 141.29 69.5472C149.324 110.203 142.557 134.238 145.287 175.59C147.114 203.256 145.404 219.242 151.302 246.334C154.137 259.356 160.617 279.163 160.617 279.163C160.617 279.163 211.404 292.988 244.238 300.657C282.321 309.551 342.307 320.921 342.307 320.921L302.542 378.497L126.586 339.262C126.586 339.262 109.328 321.819 101.869 308.245C93.3831 292.801 92.1571 282.416 88.1781 265.25C79.6201 228.33 85.8041 206.136 82.9491 168.344C81.6991 151.794 82.2201 142.344 79.3491 125.997C77.8491 117.457 74.4961 104.331 74.4961 104.331Z" fill="#06895D"/>
<path d="M146.631 124.793L298.947 181.092L301.319 208.991C311.092 259.439 319.535 284.905 343.53 321.821L320.425 286.15L309.287 255.484L148.055 206.466L121.478 230.303L85 268.5L80.0009 203L80 180L95.5004 170L146.631 124.793Z" fill="white"/>
<path d="M125.899 217.382C116.394 226.423 104.516 243.287 104.516 243.287C104.516 243.287 106.577 231.78 111.673 227.122C117.726 221.59 125.316 216.428 130.415 211.478C137.925 204.188 137.116 195.195 132.738 185.689C127.723 174.799 106.759 169.331 106.759 169.331C106.759 169.331 119.646 159.154 127.367 152.023C135.504 144.507 147.223 131.768 147.223 131.768C147.223 131.768 148.301 134.91 147.646 136.75C145.621 142.442 146.794 152.564 146.902 163.409C147.102 183.464 146.476 182.012 149.147 189.814C150.375 193.401 150.183 196.473 147.959 199.449C144.354 204.272 134.297 209.393 125.899 217.382Z" fill="#B3EFFF"/>
<path d="M152.912 157.378L156.427 198.729C156.427 198.729 159.013 183.021 159.588 176.883C160.724 164.743 164.201 154.411 160.566 141.171C159.646 137.819 153.125 136.284 153.125 136.284C153.125 136.284 151.824 144.591 152.912 157.378Z" fill="#B3EFFF"/>
<path d="M280.467 229.331C276.798 232.824 269.516 236.284 269.516 236.284L300.467 246.197C300.467 246.197 297.773 235.137 296.409 227.976C293.559 213.003 291.611 189.243 291.611 189.243L285.378 186.762C285.378 186.762 292.587 217.792 280.467 229.331Z" fill="#B3EFFF"/>
<path d="M344.807 320.707C344.807 320.707 319.174 288.104 313.32 263.167C312.735 260.679 311.994 256.757 311.994 256.757M344.807 320.707C344.807 320.707 289.636 312.109 254.635 304.789C218.552 297.242 162.915 282.478 162.915 282.478C162.915 282.478 155.246 259.153 152.594 243.713C150.081 229.088 149.375 205.85 149.375 205.85M344.807 320.707L340.459 327.111L336.111 333.515M311.994 256.757L149.375 205.85M311.994 256.757C311.994 256.757 304.785 231.538 300.887 208.524M298.835 193.143C298.378 187.889 297.992 179.666 297.992 179.666M298.835 193.143C299.251 197.919 299.979 203.162 300.887 208.524M298.835 193.143L300.887 208.524M297.992 179.666L293.246 103.795C293.246 103.795 275.771 93.3022 264.236 87.1927C239.061 73.8598 224.266 67.4923 197.501 57.7402C174.027 49.1877 136.224 39.3652 136.224 39.3652M297.992 179.666C297.992 179.666 250.41 162.047 219.954 150.672C190.989 139.855 145.831 122.852 145.831 122.852M136.224 39.3652C136.224 39.3652 141.753 63.6001 143.64 79.3808C145.659 96.2584 145.831 122.852 145.831 122.852M136.224 39.3652L124.966 51.56M145.831 122.852L132.366 135.638M124.966 51.56L113.709 63.7548M124.966 51.56C124.966 51.56 127.06 61.6446 128.133 68.1541C132.43 94.2081 132.366 135.638 132.366 135.638M132.366 135.638L121.454 146M121.454 146L82.9182 174.1C82.9182 174.1 84.4952 153.513 83.6602 141.184C82.6412 126.138 77.4102 103.077 77.4102 103.077L113.709 63.7548M121.454 146C121.454 146 120.695 119.868 118.601 103.589M121.454 146L118.601 103.589M121.454 146C121.454 146 119.911 120.137 118.601 103.589M118.601 103.589C116.796 89.5589 113.709 63.7548 113.709 63.7548M118.601 103.589C117.306 94.3656 113.709 63.7548 113.709 63.7548M118.601 103.589C117.954 95.4136 117.517 90.836 116.822 82.6645C116.127 74.493 113.709 63.7548 113.709 63.7548M88.4642 268.513C88.4642 268.513 91.7542 285.172 95.7522 295.214C103.744 315.285 127.22 340.712 127.22 340.712L304.671 379.819L312.626 368.103M88.4642 268.513C88.4642 268.513 96.3582 260.638 101.416 255.592M88.4642 268.513L77.4102 189.5M312.626 368.103C312.626 368.103 258.402 358.119 223.901 350.557C188.315 342.757 133.22 328.66 133.22 328.66C133.22 328.66 117.516 308.676 111.197 293.901C105.124 279.704 102.892 270.961 101.416 255.592M312.626 368.103L319.833 357.488M101.416 255.592C105.916 250.898 108.439 248.266 112.939 243.572M319.833 357.488L140.344 318.018C140.344 318.018 121.521 288.318 116.425 266.861C114.3 257.914 113.527 252.749 112.939 243.572M319.833 357.488L327.415 346.322M112.939 243.572C117.551 237.889 120.137 234.703 124.749 229.019M124.749 229.019C124.993 243.488 126.146 251.736 129.876 265.717C134.222 282.004 146.801 305.426 146.801 305.426C146.801 305.426 189.51 316.987 217.088 323.537C259.892 333.702 327.415 346.322 327.415 346.322M124.749 229.019C128.682 224.57 130.887 222.075 134.82 217.625M327.415 346.322L336.111 333.515M336.111 333.515C336.111 333.515 282.568 325.351 248.719 317.837C211.815 309.644 155.25 292.664 155.25 292.664C155.25 292.664 144.221 267.064 140.064 249.797C137.085 237.421 135.925 230.307 134.82 217.625M134.82 217.625C140.504 213.027 149.375 205.85 149.375 205.85" stroke="#080F66" stroke-width="7" stroke-linecap="round"/>
<path d="M148.684 137.164C148.684 137.164 148.289 156.776 148.65 166.271C149.143 179.276 149.56 188.775 149.56 188.775" stroke="#080F66" stroke-width="4" stroke-linecap="round"/>
<path d="M90.526 204.761C132.799 229.663 137.026 164.261 132.026 151.261C127.026 138.261 115.119 112.703 97.026 88.261C71.9976 60.1557 70.526 26.7594 50.026 6.75986C36.1826 -6.74563 14.1601 31.8825 35.6601 66.8824L18.5261 42.3823C0.525204 33.882 -3.54288 97.5603 22.526 120.26L19.6602 133.882C16.6595 156.881 39.964 169.01 75.026 181.761L90.526 204.761Z" fill="white" stroke="#080F66" stroke-width="8" stroke-linecap="round"/>
<path d="M46.9981 44.9904C46.9974 31.9906 54.9964 20.9904 57.9974 33.4904C60.9985 45.9904 71.497 54.4905 67.9959 57.9905C64.4948 61.4905 46.9988 57.9903 46.9981 44.9904Z" fill="#B3EEFF"/>
<path d="M40.4981 84.5L31.9981 95.5C18.3444 81.38 17.6728 73.7656 23.4981 60.5L40.4981 84.5Z" fill="#B3EEFF"/>
<path d="M74.999 167C58.499 160.839 32.0907 137.242 33.999 131.5C35.9073 125.758 19.5141 131.769 24.499 144C29.5821 156.472 44.499 169 77.499 178.5C77.499 178.5 92.999 203.5 106.999 203.5C120.999 203.5 126.306 182.228 125.499 160C111.565 177.343 91.499 173.161 74.999 167Z" fill="#B3EEFF"/>
<path d="M368.5 166C334.117 167.801 316.321 175.123 300.5 190L310.5 252C310.5 252 344.372 265.642 370 260.881C380.466 258.937 392.5 235.381 392.5 235.381C392.5 235.381 421.502 232.446 436 221.5C448.459 212.094 447.853 195.281 436 186.5C451.691 173.156 474.5 136 448 136C426.5 139 407.537 160.025 368.5 166Z" fill="white" stroke="#080F66" stroke-width="8"/>
<path d="M314 249L303.5 192C303.5 192 310.5 185.5 319.5 181.5C328.5 177.5 335.5 176.5 335.5 176.5C319.444 207.132 323.03 227.93 341 254.5L314 249Z" fill="#B6EEFF"/>
<path d="M388 185C417.196 186.876 429.634 183.697 442.5 168L388 185Z" fill="#B6EEFF"/>
<path d="M390 217C374.033 213.7 351.5 214.5 351.5 214.5L392 230C419.331 225.337 428.661 220.876 434 211.5C418.658 216.603 409.57 218.701 390 217Z" fill="#B6EEFF"/>
<path d="M159.5 280L163.999 285C152.674 299.84 136.501 324.5 136.001 324.5C135.501 324.5 159.5 280 159.5 280Z" fill="#080F66"/>
<path d="M392.498 231.496L386.998 236.996C372.643 229.997 350.001 216 350.5 215C350.998 214 392.498 231.496 392.498 231.496Z" fill="#080F66"/>
<path d="M22.2143 117.09L24.0413 124.65C29.0012 124.65 35.5596 123.831 41.5012 124C54.5199 124.371 66.0019 126.5 66.5009 125.5C67 124.5 56.8925 121.446 46.9999 119.5C39.5594 118.036 22.2143 117.09 22.2143 117.09Z" fill="#080F66"/>
<path d="M416 188.5C423.434 187.255 434.5 183 434.5 183L435.5 191C435.5 191 428.2 192.305 423.5 193C414.946 194.264 410.61 195.296 402 194.5C397.233 194.059 393.685 193.482 389 192.5C385.289 191.722 380 191.371 380 191C380 190.629 385.676 190.31 389.5 190C393.5 189.676 397.078 189.846 401 190C407.451 190.253 409.633 189.566 416 188.5Z" fill="#080F66"/>
<path d="M42 69.5C37.9535 63.1411 34 55.5 34 55.5L26.5175 60.5139C26.5175 60.5139 32.5 70.5 36 74.5C38.1082 76.9094 40.2176 78.783 41 79.5C41.7824 80.217 50.6224 87.0991 54.7628 89.5015C58.0421 91.4042 62.1769 93.6499 62.7613 93.0001C63.3456 92.3502 56.899 86.7886 54.2628 84.0015C51.5051 81.086 51.5 81.5 49 78.5C45.6666 74.5 45.5 75 42 69.5Z" fill="#080F66"/>
</svg>
