<svg width="487" height="424" viewBox="0 0 487 424" fill="none" xmlns="http://www.w3.org/2000/svg">
<path d="M234.715 88.392C202.102 75.126 148.635 61.5879 148.635 61.5879C148.635 61.5879 153.369 81.9215 155.003 95.1692C155.958 102.921 156.083 107.311 156.697 115.097C159.675 152.885 158.731 174.235 161.427 212.045C163.066 235.028 161.805 248.26 166.425 270.833C171.046 293.406 175.157 302.708 175.157 302.708C175.157 302.708 226.82 316.808 261.81 324.445C298.103 332.367 355.183 342.6 355.183 342.6C355.183 342.6 337.998 319.028 330.658 302.032C320.035 277.433 319.982 276.816 316.484 235.655L316.344 234L307.025 124.396C307.025 124.396 263.936 100.278 234.715 88.392Z" fill="#29E568"/>
<path d="M176.965 162.049L170.484 85.8237L231.602 108.227L294.436 139.015L299.646 200.294L314.043 292.907L328.763 330.294L188.401 296.564L182.923 273.445L180.212 241.56L176.965 162.049Z" fill="#06895D"/>
<path d="M199.908 118.95C195.985 122.197 187.039 121.048 187.039 121.048C187.039 121.048 190.083 169.117 191.739 199.933C193.186 226.858 195.093 268.897 195.093 268.897C195.093 268.897 208.957 270.283 215.243 275.715C228.241 286.946 224.993 295.962 224.993 295.962L293.743 313.701C293.743 313.701 292.723 305.282 295.716 301.49C298.322 298.188 305.341 296.657 305.341 296.657C305.341 296.657 294.7 255.215 291.482 228.085C288.397 202.076 288.795 161.072 288.795 161.072C288.795 161.072 278.049 157.383 274.454 151.753C271.586 147.261 271.318 138.471 271.318 138.471L204.583 109.019C204.583 109.019 203.21 116.217 199.908 118.95Z" fill="#09A867"/>
<path d="M279.22 219.593C278.994 258.251 275.474 272.601 256.764 274.192C231.356 276.352 212.944 242.757 210.066 208.913C207.189 175.07 219.992 151.867 238.702 150.277C257.412 148.686 276.342 185.75 279.22 219.593Z" fill="#29E568"/>
<path d="M89.4961 126.331L148.639 60.584C148.639 60.584 153.875 79.3279 156.29 91.5472C164.324 132.203 157.557 156.238 160.287 197.59C162.114 225.256 160.404 241.242 166.302 268.334C169.137 281.356 175.617 301.163 175.617 301.163C175.617 301.163 226.404 314.988 259.238 322.657C297.321 331.551 357.307 342.921 357.307 342.921L317.542 400.497L141.586 361.262C141.586 361.262 124.328 343.819 116.869 330.245C108.383 314.801 107.157 304.416 103.178 287.25C94.6201 250.33 100.804 228.136 97.9491 190.344C96.6991 173.794 97.2201 164.344 94.3491 147.997C92.8491 139.457 89.4961 126.331 89.4961 126.331Z" fill="#06895D"/>
<path d="M161.631 146.793L313.947 203.092L316.319 230.991C326.092 281.439 334.535 306.905 358.53 343.821L335.425 308.15L324.287 277.484L163.055 228.466L136.478 252.303L99.4996 291L95.0009 225L95 202L110.5 192L161.631 146.793Z" fill="white"/>
<path d="M140.899 239.382C131.394 248.423 119.516 265.287 119.516 265.287C119.516 265.287 121.577 253.78 126.673 249.122C132.726 243.59 140.316 238.428 145.415 233.478C152.925 226.188 152.116 217.195 147.738 207.689C142.723 196.799 121.759 191.331 121.759 191.331C121.759 191.331 134.646 181.154 142.367 174.023C150.504 166.507 162.223 153.768 162.223 153.768C162.223 153.768 163.301 156.91 162.646 158.75C160.621 164.442 161.794 174.564 161.902 185.409C162.102 205.464 161.476 204.012 164.147 211.814C165.375 215.401 165.183 218.473 162.959 221.449C159.354 226.272 149.297 231.393 140.899 239.382Z" fill="#B3EFFF"/>
<path d="M167.912 179.378L171.427 220.729C171.427 220.729 174.013 205.021 174.588 198.883C175.724 186.743 179.201 176.411 175.566 163.171C174.646 159.819 168.125 158.284 168.125 158.284C168.125 158.284 166.824 166.591 167.912 179.378Z" fill="#B3EFFF"/>
<path d="M295.467 251.331C291.798 254.824 284.516 258.284 284.516 258.284L315.467 268.197C315.467 268.197 312.773 257.137 311.409 249.976C308.559 235.003 306.611 211.243 306.611 211.243L300.378 208.762C300.378 208.762 307.587 239.792 295.467 251.331Z" fill="#B3EFFF"/>
<path d="M359.807 342.707C359.807 342.707 334.174 310.104 328.32 285.167C327.735 282.679 326.994 278.757 326.994 278.757M359.807 342.707C359.807 342.707 304.636 334.109 269.635 326.789C233.552 319.242 177.915 304.478 177.915 304.478M359.807 342.707L355.459 349.111L351.111 355.515M326.994 278.757L164.375 227.85M326.994 278.757C326.994 278.757 319.785 253.538 315.887 230.524M177.915 304.478L152.782 343.749M177.915 304.478C177.915 304.478 170.246 281.153 167.594 265.713C165.081 251.088 164.375 227.85 164.375 227.85M313.835 215.143C313.378 209.889 312.992 201.666 312.992 201.666M313.835 215.143C314.251 219.919 314.979 225.162 315.887 230.524M313.835 215.143L315.887 230.524M312.992 201.666L308.246 125.795C308.246 125.795 290.771 115.302 279.236 109.193C254.061 95.8598 239.266 89.4923 212.501 79.7402C189.027 71.1877 151.224 61.3652 151.224 61.3652M312.992 201.666C312.992 201.666 265.41 184.047 234.954 172.672C205.989 161.855 160.831 144.852 160.831 144.852M151.224 61.3652C151.224 61.3652 156.753 85.6001 158.64 101.381C160.659 118.258 160.831 144.852 160.831 144.852M151.224 61.3652L139.966 73.56M160.831 144.852L147.366 157.638M139.966 73.56L128.709 85.7548M139.966 73.56C139.966 73.56 142.06 83.6446 143.133 90.1541C147.43 116.208 147.366 157.638 147.366 157.638M147.366 157.638L136.454 168M136.454 168L97.9182 196.1C97.9182 196.1 99.4952 175.513 98.6602 163.184C97.6412 148.138 92.4102 125.077 92.4102 125.077L128.709 85.7548M136.454 168C136.454 168 135.695 141.868 133.601 125.589M136.454 168L133.601 125.589M136.454 168C136.454 168 134.911 142.137 133.601 125.589M133.601 125.589C131.796 111.559 128.709 85.7548 128.709 85.7548M133.601 125.589C132.306 116.366 128.709 85.7548 128.709 85.7548M133.601 125.589C132.954 117.414 132.517 112.836 131.822 104.665C131.127 96.493 128.709 85.7548 128.709 85.7548M103.464 290.513C103.464 290.513 106.754 307.172 110.752 317.214C118.744 337.285 142.22 362.712 142.22 362.712L319.671 401.819L327.626 390.103M103.464 290.513C103.464 290.513 111.358 282.638 116.416 277.592M103.464 290.513L92.4102 211.5M327.626 390.103C327.626 390.103 273.402 380.119 238.901 372.557C203.315 364.757 148.22 350.66 148.22 350.66C148.22 350.66 132.516 330.676 126.197 315.901C120.124 301.704 117.892 292.961 116.416 277.592M327.626 390.103L334.833 379.488M116.416 277.592C120.916 272.898 123.439 270.266 127.939 265.572M334.833 379.488L155.344 340.018C155.344 340.018 136.521 310.318 131.425 288.861C129.3 279.914 128.527 274.749 127.939 265.572M334.833 379.488L342.415 368.322M127.939 265.572C132.551 259.889 135.137 256.703 139.749 251.019M139.749 251.019C139.993 265.488 141.146 273.736 144.876 287.717C149.222 304.004 161.801 327.426 161.801 327.426C161.801 327.426 204.51 338.987 232.088 345.537C274.892 355.702 342.415 368.322 342.415 368.322M139.749 251.019C143.682 246.57 145.887 244.075 149.82 239.625M342.415 368.322L351.111 355.515M351.111 355.515C351.111 355.515 297.568 347.351 263.719 339.837C226.815 331.644 170.25 314.664 170.25 314.664C170.25 314.664 159.221 289.064 155.064 271.797C152.085 259.421 150.925 252.307 149.82 239.625M149.82 239.625C155.504 235.027 164.375 227.85 164.375 227.85" stroke="#080F66" stroke-width="7" stroke-linecap="round"/>
<path d="M163.684 159.164C163.684 159.164 163.289 178.776 163.65 188.271C164.143 201.276 164.56 210.775 164.56 210.775" stroke="#080F66" stroke-width="4" stroke-linecap="round"/>
<path d="M105.526 226.761C147.799 251.663 152.026 186.261 147.026 173.261C142.026 160.261 130.119 134.703 112.026 110.261C86.9976 82.1557 85.526 48.7594 65.026 28.7599C51.1826 15.2544 29.1601 53.8825 50.6601 88.8824L33.5261 64.3823C15.5252 55.882 11.4571 119.56 37.526 142.26L34.6602 155.882C31.6595 178.881 54.964 191.01 90.026 203.761L105.526 226.761Z" fill="white"/>
<path d="M83.526 113.761C64.5304 107.429 59.1601 98.8823 50.6601 88.8824M50.6601 88.8824C29.1601 53.8825 51.1826 15.2544 65.026 28.7599C85.526 48.7594 86.9976 82.1557 112.026 110.261C130.119 134.703 142.026 160.261 147.026 173.261C152.026 186.261 147.799 251.663 105.526 226.761L90.026 203.761C54.964 191.01 31.6595 178.881 34.6602 155.882L37.526 142.26M50.6601 88.8824L33.5261 64.3823C15.5252 55.882 11.4571 119.56 37.526 142.26M37.526 142.26L83.526 155.882" stroke="#080F66" stroke-width="8" stroke-linecap="round"/>
<path d="M61.9981 66.9904C61.9974 53.9906 69.9964 42.9904 72.9974 55.4904C75.9985 67.9904 86.497 76.4905 82.9959 79.9905C79.4948 83.4905 61.9988 79.9903 61.9981 66.9904Z" fill="#B3EEFF"/>
<path d="M55.4981 106.5L46.9981 117.5C33.3444 103.38 32.6728 95.7656 38.4981 82.5L55.4981 106.5Z" fill="#B3EEFF"/>
<path d="M89.999 189C73.499 182.839 47.0907 159.242 48.999 153.5C50.9073 147.758 34.5141 153.769 39.499 166C44.5821 178.472 59.499 191 92.499 200.5C92.499 200.5 107.999 225.5 121.999 225.5C135.999 225.5 141.306 204.228 140.499 182C126.565 199.343 106.499 195.161 89.999 189Z" fill="#B3EEFF"/>
<path d="M383.5 188C349.117 189.801 331.321 197.123 315.5 212L325.5 274C325.5 274 359.372 287.642 385 282.881C395.466 280.937 407.5 257.381 407.5 257.381C407.5 257.381 436.502 254.446 451 243.5C463.459 234.094 462.853 217.281 451 208.5C466.691 195.156 489.5 158 463 158C441.5 161 422.537 182.025 383.5 188Z" fill="white"/>
<path d="M451 208.5C466.691 195.156 489.5 158 463 158C441.5 161 422.537 182.025 383.5 188C349.117 189.801 331.321 197.123 315.5 212L325.5 274C325.5 274 359.372 287.642 385 282.881C395.466 280.937 407.5 257.381 407.5 257.381M451 208.5C462.853 217.281 463.459 234.094 451 243.5C436.502 254.446 407.5 257.381 407.5 257.381M451 208.5C429.178 215.095 416.703 215.582 394 212M407.5 257.381L360.5 240.5" stroke="#080F66" stroke-width="8"/>
<path d="M329 271L318.5 214C318.5 214 325.5 207.5 334.5 203.5C343.5 199.5 350.5 198.5 350.5 198.5C334.444 229.132 338.03 249.93 356 276.5L329 271Z" fill="#B6EEFF"/>
<path d="M403 207C432.196 208.876 444.634 205.697 457.5 190L403 207Z" fill="#B6EEFF"/>
<path d="M405 239C389.033 235.7 366.5 236.5 366.5 236.5L407 252C434.331 247.337 443.661 242.876 449 233.5C433.658 238.603 424.57 240.701 405 239Z" fill="#B6EEFF"/>
</svg>
