<svg width="263" height="76" viewBox="0 0 263 76" fill="none" xmlns="http://www.w3.org/2000/svg">
<path d="M15.3471 59.0388L26.0531 37.7244H34.3019L28.2762 66.2346H22.816L25.6436 52.7401C26.1116 50.543 26.8201 47.6764 27.7692 44.1402H27.5937L16.4977 66.2346H11.018L9.82841 44.1402H9.67241C9.38639 46.5063 8.87937 49.4509 8.15134 52.9741L5.36273 66.2346H0L6.02575 37.7244H13.9041L15.1716 59.0388H15.3471Z" fill="#29E568"/>
<path d="M49.8051 52.6621C49.8051 50.101 48.8755 48.8204 47.0165 48.8204C46.0414 48.8204 45.1639 49.2169 44.3839 50.0099C43.6168 50.803 42.9863 51.9665 42.4923 53.5006C42.0113 55.0347 41.7708 56.6142 41.7708 58.2393C41.7708 60.6444 42.7458 61.8469 44.6959 61.8469C45.6709 61.8469 46.5485 61.4504 47.3285 60.6574C48.1085 59.8514 48.713 58.7398 49.1421 57.3228C49.5841 55.8927 49.8051 54.3391 49.8051 52.6621ZM55.7138 52.6621C55.7138 55.4052 55.2523 57.8363 54.3293 59.9554C53.4192 62.0745 52.0997 63.719 50.3706 64.8891C48.6415 66.0461 46.5875 66.6246 44.2084 66.6246C41.6732 66.6246 39.6452 65.8641 38.1241 64.3431C36.616 62.809 35.862 60.7744 35.862 58.2393C35.862 55.4702 36.3235 53.0066 37.2466 50.8485C38.1826 48.6774 39.5282 47.0003 41.2832 45.8173C43.0383 44.6212 45.0924 44.0232 47.4455 44.0232C49.9936 44.0232 52.0087 44.7902 53.4907 46.3243C54.9728 47.8584 55.7138 49.9709 55.7138 52.6621Z" fill="#29E568"/>
<path d="M76.5212 66.2346H70.6515L73.3231 53.5006C73.5311 52.6166 73.6351 51.843 73.6351 51.18C73.6351 49.5809 72.9331 48.7814 71.529 48.7814C70.333 48.7814 69.2474 49.5224 68.2724 51.0045C67.2973 52.4866 66.5303 54.5536 65.9713 57.2058L64.0602 66.2346H58.1904L62.8121 44.4327H67.2973L66.8878 48.4694H67.0633C68.9614 45.5053 71.2495 44.0232 73.9276 44.0232C75.7217 44.0232 77.1062 44.5692 78.0813 45.6613C79.0693 46.7403 79.5633 48.2874 79.5633 50.3025C79.5633 51.2515 79.4138 52.4216 79.1148 53.8126L76.5212 66.2346Z" fill="#29E568"/>
<path d="M95.1835 48.2549C94.0394 48.2549 92.9604 48.7749 91.9464 49.8149C90.9323 50.855 90.2693 52.1225 89.9573 53.6176H90.8348C92.8499 53.6176 94.4165 53.3056 95.5345 52.6816C96.6656 52.0445 97.2311 51.1865 97.2311 50.1075C97.2311 48.8724 96.5486 48.2549 95.1835 48.2549ZM91.9854 66.6246C89.2552 66.6246 87.1362 65.8901 85.6281 64.4211C84.12 62.952 83.366 60.8784 83.366 58.2003C83.366 55.5092 83.899 53.0586 84.9651 50.8485C86.0441 48.6254 87.5002 46.9353 89.3333 45.7783C91.1663 44.6082 93.2399 44.0232 95.554 44.0232C97.8551 44.0232 99.6492 44.5562 100.936 45.6223C102.223 46.6753 102.867 48.1249 102.867 49.9709C102.867 52.4021 101.781 54.2806 99.6102 55.6067C97.4391 56.9197 94.3385 57.5763 90.3083 57.5763H89.3138L89.2747 57.9858V58.3758C89.2747 59.5589 89.6063 60.4949 90.2693 61.1839C90.9453 61.8599 91.9074 62.198 93.1554 62.198C94.2865 62.198 95.3135 62.0745 96.2365 61.8274C97.1596 61.5804 98.2776 61.1449 99.5907 60.5209V64.9476C97.3546 66.0656 94.8195 66.6246 91.9854 66.6246Z" fill="#29E568"/>
<path d="M105.48 44.4327H111.233L112.325 54.5341C112.481 55.8992 112.559 57.8038 112.559 60.2479H112.715C112.975 59.5849 113.261 58.8113 113.573 57.9273C113.885 57.0302 114.307 56.0292 114.84 54.9242L119.911 44.4327H126.287L113.027 69.3548C110.726 73.6709 107.586 75.829 103.608 75.829C102.438 75.829 101.482 75.7055 100.741 75.4585V70.7783C101.625 70.9473 102.379 71.0318 103.003 71.0318C104.095 71.0318 105.051 70.7198 105.87 70.0958C106.702 69.4718 107.469 68.5032 108.171 67.1902L108.678 66.2346L105.48 44.4327Z" fill="#29E568"/>
<path d="M142.687 57.8103C142.687 60.5274 141.725 62.679 139.801 64.265C137.877 65.8381 135.271 66.6246 131.982 66.6246C129.108 66.6246 126.794 66.0396 125.039 64.8696V59.5264C127.548 60.9304 129.875 61.6324 132.021 61.6324C133.477 61.6324 134.614 61.3594 135.433 60.8134C136.252 60.2544 136.662 59.4938 136.662 58.5318C136.662 57.9728 136.571 57.4853 136.389 57.0692C136.22 56.6402 135.973 56.2437 135.648 55.8797C135.323 55.5157 134.517 54.8527 133.23 53.8906C131.436 52.6036 130.174 51.3295 129.446 50.0685C128.718 48.8074 128.354 47.4488 128.354 45.9928C128.354 44.3157 128.757 42.8206 129.563 41.5076C130.369 40.1815 131.514 39.1545 132.996 38.4265C134.491 37.6854 136.207 37.3149 138.144 37.3149C140.965 37.3149 143.546 37.9584 145.886 39.2455L143.76 43.7892C141.732 42.8271 139.86 42.3461 138.144 42.3461C137.065 42.3461 136.181 42.6386 135.492 43.2237C134.803 43.8087 134.458 44.5822 134.458 45.5443C134.458 46.3373 134.673 47.0328 135.102 47.6308C135.531 48.2159 136.493 48.9959 137.988 49.9709C139.561 51.011 140.737 52.1615 141.517 53.4226C142.297 54.6706 142.687 56.1332 142.687 57.8103Z" fill="white"/>
<path d="M158.99 48.2549C157.846 48.2549 156.767 48.7749 155.753 49.8149C154.739 50.855 154.076 52.1225 153.764 53.6176H154.641C156.657 53.6176 158.223 53.3056 159.341 52.6816C160.472 52.0445 161.038 51.1865 161.038 50.1075C161.038 48.8724 160.355 48.2549 158.99 48.2549ZM155.792 66.6246C153.062 66.6246 150.943 65.8901 149.435 64.4211C147.927 62.952 147.173 60.8784 147.173 58.2003C147.173 55.5092 147.706 53.0586 148.772 50.8485C149.851 48.6254 151.307 46.9353 153.14 45.7783C154.973 44.6082 157.047 44.0232 159.361 44.0232C161.662 44.0232 163.456 44.5562 164.743 45.6223C166.03 46.6753 166.673 48.1249 166.673 49.9709C166.673 52.4021 165.588 54.2806 163.417 55.6067C161.246 56.9197 158.145 57.5763 154.115 57.5763H153.12L153.081 57.9858V58.3758C153.081 59.5589 153.413 60.4949 154.076 61.1839C154.752 61.8599 155.714 62.198 156.962 62.198C158.093 62.198 159.12 62.0745 160.043 61.8274C160.966 61.5804 162.084 61.1449 163.397 60.5209V64.9476C161.161 66.0656 158.626 66.6246 155.792 66.6246Z" fill="white"/>
<path d="M183.854 59.0388C183.854 61.4829 183.041 63.3615 181.416 64.6746C179.804 65.9746 177.555 66.6246 174.669 66.6246C173.278 66.6246 172.062 66.5271 171.022 66.3321C169.995 66.1371 169.033 65.8121 168.136 65.3571V60.5209C170.177 61.6909 172.251 62.276 174.357 62.276C175.397 62.276 176.248 62.068 176.911 61.6519C177.574 61.2229 177.906 60.6444 177.906 59.9164C177.906 59.3573 177.665 58.8568 177.184 58.4148C176.703 57.9728 175.852 57.4138 174.63 56.7377C173.057 55.8537 171.958 54.9762 171.334 54.1051C170.71 53.2211 170.398 52.181 170.398 50.985C170.398 48.7749 171.113 47.0653 172.543 45.8563C173.986 44.6342 176.04 44.0232 178.706 44.0232C181.319 44.0232 183.678 44.6407 185.784 45.8758L183.854 50.0685C182.034 48.9764 180.357 48.4304 178.823 48.4304C178.081 48.4304 177.483 48.5994 177.028 48.9374C176.573 49.2624 176.346 49.7044 176.346 50.2635C176.346 50.7705 176.554 51.219 176.97 51.609C177.386 51.986 178.166 52.4671 179.31 53.0521C180.909 53.8711 182.066 54.7617 182.781 55.7237C183.496 56.6857 183.854 57.7908 183.854 59.0388Z" fill="white"/>
<path d="M202.77 59.0388C202.77 61.4829 201.957 63.3615 200.332 64.6746C198.72 65.9746 196.471 66.6246 193.585 66.6246C192.194 66.6246 190.978 66.5271 189.938 66.3321C188.911 66.1371 187.949 65.8121 187.052 65.3571V60.5209C189.093 61.6909 191.167 62.276 193.273 62.276C194.313 62.276 195.164 62.068 195.827 61.6519C196.49 61.2229 196.822 60.6444 196.822 59.9164C196.822 59.3573 196.581 58.8568 196.1 58.4148C195.619 57.9728 194.768 57.4138 193.546 56.7377C191.973 55.8537 190.874 54.9762 190.25 54.1051C189.626 53.2211 189.314 52.181 189.314 50.985C189.314 48.7749 190.029 47.0653 191.459 45.8563C192.902 44.6342 194.956 44.0232 197.621 44.0232C200.234 44.0232 202.594 44.6407 204.7 45.8758L202.77 50.0685C200.949 48.9764 199.272 48.4304 197.738 48.4304C196.997 48.4304 196.399 48.5994 195.944 48.9374C195.489 49.2624 195.262 49.7044 195.262 50.2635C195.262 50.7705 195.47 51.219 195.886 51.609C196.302 51.986 197.082 52.4671 198.226 53.0521C199.825 53.8711 200.982 54.7617 201.697 55.7237C202.412 56.6857 202.77 57.7908 202.77 59.0388Z" fill="white"/>
<path d="M212.11 66.2346H206.241L210.862 44.4327H216.732L212.11 66.2346ZM211.798 39.3235C211.798 38.1925 212.104 37.3409 212.715 36.7689C213.339 36.1839 214.216 35.8914 215.348 35.8914C216.297 35.8914 217.018 36.0929 217.512 36.4959C218.006 36.8989 218.253 37.4774 218.253 38.2315C218.253 39.2715 217.967 40.1165 217.395 40.7666C216.823 41.4036 215.939 41.7221 214.743 41.7221C212.78 41.7221 211.798 40.9226 211.798 39.3235Z" fill="white"/>
<path d="M233.074 52.6621C233.074 50.101 232.144 48.8204 230.285 48.8204C229.31 48.8204 228.433 49.2169 227.653 50.0099C226.886 50.803 226.255 51.9665 225.761 53.5006C225.28 55.0347 225.039 56.6142 225.039 58.2393C225.039 60.6444 226.014 61.8469 227.965 61.8469C228.94 61.8469 229.817 61.4504 230.597 60.6574C231.377 59.8514 231.982 58.7398 232.411 57.3228C232.853 55.8927 233.074 54.3391 233.074 52.6621ZM238.983 52.6621C238.983 55.4052 238.521 57.8363 237.598 59.9554C236.688 62.0745 235.368 63.719 233.639 64.8891C231.91 66.0461 229.856 66.6246 227.477 66.6246C224.942 66.6246 222.914 65.8641 221.393 64.3431C219.885 62.809 219.131 60.7744 219.131 58.2393C219.131 55.4702 219.592 53.0066 220.515 50.8485C221.451 48.6774 222.797 47.0003 224.552 45.8173C226.307 44.6212 228.361 44.0232 230.714 44.0232C233.262 44.0232 235.277 44.7902 236.759 46.3243C238.242 47.8584 238.983 49.9709 238.983 52.6621Z" fill="white"/>
<path d="M259.79 66.2346H253.92L256.592 53.5006C256.8 52.6166 256.904 51.843 256.904 51.18C256.904 49.5809 256.202 48.7814 254.798 48.7814C253.602 48.7814 252.516 49.5224 251.541 51.0045C250.566 52.4866 249.799 54.5536 249.24 57.2058L247.329 66.2346H241.459L246.081 44.4327H250.566L250.156 48.4694H250.332C252.23 45.5053 254.518 44.0232 257.196 44.0232C258.99 44.0232 260.375 44.5692 261.35 45.6613C262.338 46.7403 262.832 48.2874 262.832 50.3025C262.832 51.2515 262.683 52.4216 262.384 53.8126L259.79 66.2346Z" fill="white"/>
<path d="M35.1299 51.8127C44.3881 34.3245 56.1441 44.7922 54.2924 45.5364C54.2924 45.5364 50.9595 57.0712 47.5768 61.9189C50.4197 59.0819 55.4034 58.9317 56.1441 54.0945C56.9222 49.0129 56.8516 44.7826 61.5238 42.0898C74.5592 32.8264 91.224 28.8407 106.408 25.864C91.4893 26.7949 72.5558 32.4777 59.2668 39.3143C58.7624 39.574 58.0164 39.1539 58.0164 39.1539C45.0342 37.3504 38.0925 42.7364 35.1299 51.8127Z" fill="#29E568"/>
<path d="M108.935 5.14838C105.457 3.44515 99.6914 1.55394 99.6914 1.55394C99.6914 1.55394 100.057 3.82141 100.136 5.28771C100.182 6.1457 100.162 6.62843 100.17 7.48762C100.211 11.6574 99.9452 13.9934 99.9543 18.1633C99.9599 20.698 99.7212 22.1407 100.057 24.6531C100.393 27.1654 100.774 28.2175 100.774 28.2175C100.774 28.2175 106.337 30.1567 110.119 31.2602C114.042 32.4048 120.229 33.9607 120.229 33.9607C120.229 33.9607 118.521 31.2434 117.845 29.3225C116.865 26.5422 116.864 26.4741 116.793 21.9302L116.79 21.7476L116.598 9.64803C116.598 9.64803 112.052 6.67441 108.935 5.14838Z" fill="#29E568"/>
<path d="M102.039 12.7941L101.905 4.3794L108.443 7.30153L115.106 11.1569L115.213 17.9216L116.091 28.1949L117.423 32.4097L102.274 27.6435L101.848 25.0647L101.792 21.5449L102.039 12.7941Z" fill="#06895D"/>
<path d="M104.884 8.23812C104.429 8.56466 103.456 8.37075 103.456 8.37075C103.456 8.37075 103.425 13.6693 103.373 17.0639C103.328 20.0298 103.218 24.658 103.218 24.658C103.218 24.658 104.729 24.9152 105.378 25.559C106.72 26.8901 106.295 27.855 106.295 27.855L113.705 30.3232C113.705 30.3232 113.657 29.3915 114.014 28.998C114.325 28.6554 115.107 28.5406 115.107 28.5406C115.107 28.5406 114.254 23.9117 114.106 20.9098C113.965 18.032 114.32 13.5349 114.32 13.5349C114.32 13.5349 113.168 13.0485 112.816 12.4034C112.536 11.8887 112.573 10.922 112.573 10.922L105.472 7.18358C105.472 7.18358 105.267 7.96319 104.884 8.23812Z" fill="#09A867"/>
<path d="M112.825 19.8848C112.507 24.1258 112.012 25.6739 109.946 25.7066C107.141 25.7511 105.375 21.9244 105.316 18.1883C105.257 14.4523 106.838 12.0029 108.904 11.9702C110.969 11.9375 112.766 16.1488 112.825 19.8848Z" fill="#29E568"/>
<path d="M92.7103 8.21084L99.6996 1.44375C99.6996 1.44375 100.132 3.54057 100.304 4.89992C100.878 9.42269 99.9531 12.0092 99.9391 16.5682C99.9298 19.6184 99.6209 21.3598 100.063 24.3779C100.275 25.8285 100.836 28.0514 100.836 28.0514C100.836 28.0514 106.305 29.9538 109.85 31.0444C113.962 32.3093 120.46 34.0121 120.46 34.0121L115.659 40.0293L96.6455 34.3891C96.6455 34.3891 94.8838 32.3439 94.1681 30.7976C93.354 29.0383 93.2981 27.8893 92.9915 25.9752C92.3323 21.8584 93.1793 19.4695 93.1526 15.3003C93.1409 13.4745 93.2697 12.4414 93.0786 10.6255C92.9787 9.67687 92.7103 8.21084 92.7103 8.21084Z" fill="#06895D"/>
<path d="M100.471 11.0034L116.761 18.3371L116.81 21.417L117.47 21.4066L120.138 23.1247L122.721 26.4945L125.704 30.7382L128.101 32.7357L127.839 33.565L126.423 34.4126L124.107 34.0642L123.627 35.062L122.209 35.8546L120.327 35.1143L120.587 34.1199L118.321 30.0299L117.332 26.5799L100.008 19.9777L96.911 22.3922L93.5525 25.6911L90.545 26.839L88.6594 26.4184L88.684 24.4282L87.6633 26.5529L85.8116 27.7375L82.1635 27.3511L80.5572 26.6614L80.0704 25.6835L82.3139 24.5758L79.2006 24.0153L77.1919 22.2317L78.2151 20.8402L81.5046 20.128L85.3189 19.0329L90.1081 16.6137L94.5507 15.7732L100.471 11.0034Z" fill="white"/>
<path d="M80.5366 21.8331C80.0091 21.9802 79.166 22.1298 79.166 22.1298C79.166 22.1298 81.0018 23.421 81.7674 23.1339C82.4387 22.8821 82.0137 21.3146 82.0137 21.3146C82.0137 21.3146 81.1255 21.6688 80.5366 21.8331Z" fill="#B3EFFF"/>
<path d="M83.667 24.9742C84.0925 24.7052 84.6439 24.1335 84.6439 24.1335C84.6439 24.1335 84.9513 24.7688 85.2637 25.0589C85.5661 25.3397 86.2074 25.5941 86.2074 25.5941C86.2074 25.5941 85.1763 26.1663 84.4562 26.1719C83.6542 26.1782 82.5199 25.4874 82.5199 25.4874C82.5199 25.4874 83.2522 25.2364 83.667 24.9742Z" fill="#B3EFFF"/>
<path d="M90.3085 25.7431C90.0759 25.275 90.5076 24.4196 90.5076 24.4196C90.5076 24.4196 90.9034 24.8113 91.2304 24.9033C92.9434 25.3854 95.1484 20.428 94.9529 18.5057C94.8596 17.588 93.8199 16.4332 93.8199 16.4332C93.8199 16.4332 97.3118 16.3504 97.8163 18.6804C98.0831 19.9127 96.4133 20.408 95.5979 21.026C95.0862 21.4139 93.3788 25.0893 93.3788 25.0893C93.3788 25.0893 92.2412 26.2076 91.4739 26.3848C90.9677 26.5017 90.5397 26.2084 90.3085 25.7431Z" fill="#B3EFFF"/>
<path d="M97.8597 20.6296C96.748 21.5497 94.4545 24.0193 94.4545 24.0193C94.4545 24.0193 95.3334 21.9019 95.9279 21.4294C96.6342 20.8681 97.0626 20.6512 97.6597 20.1467C98.5392 19.4036 98.7172 18.6916 98.3088 17.6151C97.841 16.382 95.9442 15.8351 95.9442 15.8351C95.9442 15.8351 97.4358 14.8159 98.3371 14.0919C99.2872 13.3288 100.67 12.0195 100.67 12.0195C100.67 12.0195 100.764 12.3726 100.679 12.5695C100.413 13.1788 100.465 14.2986 100.395 15.4896C100.265 17.6922 100.207 17.528 100.441 18.4045C100.548 18.8075 100.504 19.1432 100.237 19.453C99.8053 19.9549 98.842 19.8165 97.8597 20.6296Z" fill="#B3EFFF"/>
<path d="M101.1 14.8733L101.172 19.4382C101.172 19.4382 101.575 17.7339 101.685 17.0645C101.902 15.7408 102.362 14.6333 102.063 13.1527C101.987 12.7778 101.284 12.5599 101.284 12.5599C101.284 12.5599 101.078 13.4617 101.1 14.8733Z" fill="#B3EFFF"/>
<path d="M90.3085 25.7431C90.0759 25.275 90.5076 24.4196 90.5076 24.4196C90.5076 24.4196 90.9034 24.8113 91.2304 24.9033C92.9434 25.3854 95.1484 20.428 94.9529 18.5057C94.8596 17.588 93.8199 16.4332 93.8199 16.4332C93.8199 16.4332 97.3118 16.3504 97.8163 18.6804C98.0831 19.9127 96.4133 20.408 95.5979 21.026C95.0862 21.4139 93.3788 25.0893 93.3788 25.0893C93.3788 25.0893 92.2412 26.2076 91.4739 26.3848C90.9677 26.5017 90.5397 26.2084 90.3085 25.7431Z" stroke="black"/>
<path d="M97.8597 20.6296C96.748 21.5497 94.4545 24.0193 94.4545 24.0193C94.4545 24.0193 95.3334 21.9019 95.9279 21.4294C96.6342 20.8681 97.0626 20.6512 97.6597 20.1467C98.5392 19.4036 98.7172 18.6916 98.3088 17.6151C97.841 16.382 95.9442 15.8351 95.9442 15.8351C95.9442 15.8351 97.4358 14.8159 98.3371 14.0919C99.2872 13.3288 100.67 12.0195 100.67 12.0195C100.67 12.0195 100.764 12.3726 100.679 12.5695C100.413 13.1788 100.465 14.2986 100.395 15.4896C100.265 17.6922 100.207 17.528 100.441 18.4045C100.548 18.8075 100.504 19.1432 100.237 19.453C99.8053 19.9549 98.842 19.8165 97.8597 20.6296Z" stroke="black"/>
<path d="M101.1 14.8733L101.172 19.4382C101.172 19.4382 101.575 17.7339 101.685 17.0645C101.902 15.7408 102.362 14.6333 102.063 13.1527C101.987 12.7778 101.284 12.5599 101.284 12.5599C101.284 12.5599 101.078 13.4617 101.1 14.8733Z" stroke="black"/>
<path d="M114.367 23.4912C113.938 23.8467 113.113 24.1712 113.113 24.1712L116.435 25.4939C116.435 25.4939 116.223 24.2596 116.127 23.4633C115.928 21.7984 115.894 19.1761 115.894 19.1761L115.229 18.8565C115.229 18.8565 115.785 22.3167 114.367 23.4912Z" fill="#B3EFFF"/>
<path d="M118.913 29.1406L118.181 28.1069C118.181 28.1069 118.516 29.3604 118.818 30.1323C119.246 31.2234 120.181 32.8063 120.181 32.8063L121.249 34.2197L121.035 34.6081C121.238 34.6966 121.677 34.873 121.809 34.8709L122.799 34.8553C122.799 34.8553 121.377 33.7554 120.676 32.7984C119.768 31.5585 118.913 29.1406 118.913 29.1406Z" fill="#B3EFFF"/>
<path d="M118.93 23.3089C118.486 23.0592 117.554 22.5495 117.377 22.5083L117.57 24.2656C117.57 24.2656 118.209 24.315 118.617 24.3591C119.309 24.4338 120.381 24.6062 120.381 24.6062C120.381 24.6062 119.374 23.5586 118.93 23.3089Z" fill="#B3EFFF"/>
<path d="M123.347 31.2157C122.687 30.2838 121.442 29.0454 121.442 29.0454L122.47 31.4496C122.47 31.4496 122.785 31.9685 123.033 32.2659C123.393 32.6976 123.59 32.9906 124.094 33.2393C124.585 33.4816 125.473 33.4925 125.473 33.4925C125.473 33.4925 124.078 32.2494 123.347 31.2157Z" fill="#B3EFFF"/>
<path d="M120.736 34.0076C120.736 34.0076 118.17 30.2352 117.717 27.454C117.671 27.1764 117.62 26.7404 117.62 26.7404M120.736 34.0076C120.736 34.0076 114.746 32.6457 110.96 31.5768C107.058 30.475 101.063 28.4328 101.063 28.4328M120.736 34.0076L120.21 34.6775M116.658 19.6591C116.648 19.0791 116.668 18.1736 116.668 18.1736M116.658 19.6591C116.667 20.1864 116.707 20.7673 116.766 21.3628M116.658 19.6591L116.766 21.3628M99.9776 1.54929C99.9776 1.54929 104.052 2.91395 106.563 4.03057C109.427 5.30381 111.002 6.11482 113.664 7.76897C114.884 8.52694 116.722 9.81099 116.722 9.81099L116.668 18.1736M99.9776 1.54929C99.9776 1.54929 100.401 4.25095 100.488 5.99716C100.582 7.86475 100.399 10.7846 100.399 10.7846M99.9776 1.54929L98.6497 2.80228M100.399 10.7846C100.399 10.7846 105.226 12.9931 108.323 14.3999C111.579 15.8792 116.668 18.1736 116.668 18.1736M100.399 10.7846L98.8242 12.0858M94.6973 15.4959L93.1617 15.7952M94.6973 15.4959C94.6973 15.4959 94.8955 12.6758 94.7891 10.8734C94.6975 9.31993 94.285 6.92055 94.285 6.92055M94.6973 15.4959L96.1227 14.318M94.6973 15.4959C94.6973 15.4959 95.9956 15.737 96.6885 16.1795C97.2774 16.5555 97.6416 16.8096 97.9735 17.4244C98.2062 17.8554 98.2803 18.178 98.2829 18.6848C98.2909 20.223 95.9945 20.9863 95.5072 21.4793C95.0199 21.9723 94.7339 23.592 93.8527 24.6962C93.5053 25.1316 92.879 25.7385 92.879 25.7385M93.1617 15.7952C93.1617 15.7952 93.435 13.6845 93.4368 12.3251C93.4391 10.6661 93.0398 8.09552 93.0398 8.09552L94.285 6.92055M93.1617 15.7952C93.1617 15.7952 91.7099 16.1332 90.8064 16.4377C88.4395 17.2353 88.1051 17.8663 85.8021 18.8331C84.8821 19.2193 83.2004 19.8044 82.0298 20.2126C81.1227 20.529 80.1634 20.4376 79.1744 20.5083C78.4063 20.5632 77.6645 20.7764 77.4851 21.5252C77.3781 21.9718 77.5744 22.349 77.7721 22.7635C77.9697 23.178 78.5956 23.4859 79.3124 23.783C80.1986 24.1502 81.8693 24.4615 81.8693 24.4615M94.285 6.92055L95.8583 5.43611M95.8583 5.43611C95.8583 5.43611 96.0475 7.02468 96.1197 8.04675C96.2922 10.4898 96.1227 14.318 96.1227 14.318M95.8583 5.43611L97.3217 4.05527M96.1227 14.318L97.5481 13.1402M97.5481 13.1402C97.5481 13.1402 97.5748 10.2901 97.5566 8.46409C97.5476 7.56195 97.5343 7.05626 97.52 6.15418C97.5057 5.2521 97.3217 4.05527 97.3217 4.05527M97.5481 13.1402L98.8242 12.0858M97.3217 4.05527L98.6497 2.80228M98.6497 2.80228C98.6497 2.80228 98.803 3.92493 98.8714 4.64747C99.1454 7.53943 98.8242 12.0858 98.8242 12.0858M81.8693 24.4615C81.8693 24.4615 82.9479 24.1857 83.6997 23.9063C84.6455 23.5547 85.1285 23.3548 85.845 22.7325C86.5614 22.1103 87.3623 21.2782 87.3623 21.2782M81.8693 24.4615C81.8693 24.4615 79.7329 25.3594 80.3532 26.189C81.6403 27.9103 85.8941 27.4864 86.2764 27.3153C86.6588 27.1442 87.6227 26.6805 88.0696 25.9117C88.3839 25.3708 88.6843 24.4283 88.6843 24.4283M88.6843 24.4283C88.6843 24.4283 88.9279 23.9096 89.1088 23.404C89.4294 22.5081 89.8163 21.6968 89.8163 21.6968M88.6843 24.4283C88.6843 24.4283 88.4401 25.6461 88.8012 26.077C89.0788 26.4084 89.7873 26.7109 90.1182 26.7606C90.814 26.8653 91.8345 26.6886 92.3922 26.2596C92.6129 26.0898 92.879 25.7385 92.879 25.7385M92.879 25.7385L92.9985 26.3356M116.845 38.9653L115.883 40.1908L96.7044 34.5531C96.7044 34.5531 94.3207 31.5846 93.5959 29.3212C93.2333 28.1888 92.9985 26.3356 92.9985 26.3356M116.845 38.9653C116.845 38.9653 110.969 37.4583 107.24 36.3668C103.394 35.2409 97.4543 33.276 97.4543 33.276C97.4543 33.276 95.8824 30.9637 95.3008 29.2942C94.7421 27.6902 94.5634 26.7137 94.5179 25.0157M116.845 38.9653L117.716 37.8549M94.5179 25.0157C93.9246 25.5312 92.9985 26.3356 92.9985 26.3356M94.5179 25.0157C95.0474 24.5347 95.3443 24.265 95.8737 23.784M95.8737 23.784C95.8686 24.7956 95.9143 25.3683 96.0797 26.3663C96.4763 28.7598 98.3169 32.1621 98.3169 32.1621L117.716 37.8549M95.8737 23.784C96.423 23.1953 96.7309 22.8652 97.2802 22.2764M117.716 37.8549L118.633 36.687M118.633 36.687C118.633 36.687 111.318 34.7899 106.697 33.3497C103.72 32.4218 99.121 30.8291 99.121 30.8291C99.121 30.8291 97.918 28.1632 97.5646 26.3428C97.2612 24.7801 97.1973 23.8662 97.2802 22.2764M118.633 36.687L119.684 35.3473M97.2802 22.2764C97.7455 21.8179 98.0065 21.5608 98.4718 21.1023M98.4718 21.1023C98.497 22.5024 98.5703 23.292 98.8034 24.6728C99.1287 26.5994 100.145 29.4926 100.145 29.4926C100.145 29.4926 106.224 31.7851 110.212 32.964C113.87 34.0453 119.684 35.3473 119.684 35.3473M98.4718 21.1023C99.1305 20.6407 100.158 19.9203 100.158 19.9203M119.684 35.3473L120.21 34.6775M101.063 28.4328L98.0074 32.5521M101.063 28.4328C101.063 28.4328 100.399 25.8148 100.225 24.1002C100.06 22.476 100.158 19.9203 100.158 19.9203M100.158 19.9203L117.62 26.7404M117.62 26.7404C117.62 26.7404 117.02 23.918 116.766 21.3628M116.766 21.3628C116.766 21.3628 118.797 22.1446 119.901 22.9635C121.92 24.4618 122.487 26.4433 123.669 28.1849C124.36 29.2014 124.736 29.7913 125.579 30.6852C126.499 31.6599 128.475 31.5881 128.2 32.8992C127.983 33.9312 127.012 34.2647 125.969 34.4199C124.994 34.5649 123.537 33.7432 123.537 33.7432M123.537 33.7432C123.537 33.7432 122.675 32.8031 122.246 32.1133C121.4 30.7515 120.919 28.2285 120.919 28.2285M123.537 33.7432C123.537 33.7432 123.835 34.6574 123.559 35.1182C123.336 35.4913 123.045 35.5954 122.634 35.7379C122.126 35.914 121.754 35.9681 121.259 35.7597C120.853 35.5887 120.422 35.0028 120.422 35.0028L120.21 34.6775" stroke="#080F66" stroke-linecap="round"/>
<path d="M100.603 12.3767C100.603 12.3767 100.411 14.5262 100.379 15.571C100.334 17.002 100.308 18.0476 100.308 18.0476" stroke="#080F66" stroke-linecap="round"/>
</svg>
