<svg width="120" height="35" viewBox="0 0 120 35" fill="none" xmlns="http://www.w3.org/2000/svg">
<path d="M6.97326 27.3712L11.8377 17.6867H15.5857L12.8478 30.6408H10.3669L11.6516 24.5093C11.8643 23.511 12.1862 22.2085 12.6174 20.6018H12.5377L7.49603 30.6408H5.00622L4.46572 20.6018H4.39484C4.26488 21.6769 4.03451 23.0148 3.70371 24.6156L2.43665 30.6408H0L2.73791 17.6867H6.31758L6.89352 27.3712H6.97326Z" fill="#29E568"/>
<path d="M22.6299 24.4738C22.6299 23.3102 22.2075 22.7283 21.3628 22.7283C20.9198 22.7283 20.5211 22.9085 20.1666 23.2688C19.8181 23.6291 19.5316 24.1578 19.3072 24.8548C19.0886 25.5519 18.9793 26.2696 18.9793 27.008C18.9793 28.1008 19.4223 28.6472 20.3084 28.6472C20.7514 28.6472 21.1502 28.467 21.5046 28.1067C21.859 27.7404 22.1337 27.2354 22.3286 26.5915C22.5295 25.9417 22.6299 25.2358 22.6299 24.4738ZM25.3146 24.4738C25.3146 25.7202 25.1049 26.8248 24.6855 27.7877C24.272 28.7505 23.6725 29.4978 22.8868 30.0294C22.1012 30.5551 21.1679 30.818 20.0869 30.818C18.935 30.818 18.0135 30.4724 17.3224 29.7813C16.6372 29.0843 16.2946 28.1598 16.2946 27.008C16.2946 25.7498 16.5043 24.6304 16.9237 23.6498C17.349 22.6633 17.9604 21.9013 18.7578 21.3638C19.5553 20.8203 20.4886 20.5486 21.5577 20.5486C22.7155 20.5486 23.6311 20.8971 24.3045 21.5942C24.9779 22.2912 25.3146 23.2511 25.3146 24.4738Z" fill="#29E568"/>
<path d="M34.7688 30.6408H32.1018L33.3157 24.8548C33.4102 24.4532 33.4575 24.1017 33.4575 23.8004C33.4575 23.0739 33.1385 22.7106 32.5005 22.7106C31.9571 22.7106 31.4638 23.0473 31.0208 23.7207C30.5778 24.3941 30.2293 25.3333 29.9753 26.5384L29.1069 30.6408H26.4399L28.5399 20.7347H30.5778L30.3917 22.5688H30.4715C31.3339 21.222 32.3735 20.5486 33.5904 20.5486C34.4056 20.5486 35.0347 20.7967 35.4777 21.2929C35.9266 21.7832 36.1511 22.4861 36.1511 23.4017C36.1511 23.8329 36.0832 24.3646 35.9473 24.9966L34.7688 30.6408Z" fill="#29E568"/>
<path d="M43.2484 22.4714C42.7286 22.4714 42.2383 22.7076 41.7775 23.1802C41.3168 23.6528 41.0155 24.2287 40.8738 24.908H41.2725C42.1881 24.908 42.8999 24.7662 43.4079 24.4827C43.9218 24.1933 44.1788 23.8034 44.1788 23.3131C44.1788 22.7519 43.8686 22.4714 43.2484 22.4714ZM41.7953 30.818C40.5548 30.818 39.5919 30.4843 38.9067 29.8168C38.2215 29.1493 37.8789 28.2071 37.8789 26.9902C37.8789 25.7675 38.1211 24.654 38.6055 23.6498C39.0957 22.6397 39.7573 21.8718 40.5902 21.3461C41.4231 20.8144 42.3653 20.5486 43.4167 20.5486C44.4623 20.5486 45.2775 20.7908 45.8623 21.2752C46.4471 21.7536 46.7395 22.4123 46.7395 23.2511C46.7395 24.3557 46.2462 25.2093 45.2597 25.8118C44.2733 26.4084 42.8644 26.7067 41.0333 26.7067H40.5814L40.5636 26.8928V27.07C40.5636 27.6075 40.7143 28.0328 41.0155 28.3459C41.3227 28.6531 41.7598 28.8067 42.3269 28.8067C42.8408 28.8067 43.3075 28.7505 43.7269 28.6383C44.1463 28.5261 44.6543 28.3282 45.2509 28.0446V30.056C44.2349 30.564 43.083 30.818 41.7953 30.818Z" fill="#29E568"/>
<path d="M47.9268 20.7347H50.5406L51.0368 25.3245C51.1077 25.9447 51.1432 26.8101 51.1432 27.9206H51.214C51.3322 27.6193 51.4621 27.2679 51.6039 26.8662C51.7457 26.4586 51.9376 26.0038 52.1798 25.5017L54.4836 20.7347H57.381L51.3558 32.0585C50.3103 34.0196 48.8837 35.0002 47.0762 35.0002C46.5445 35.0002 46.1104 34.9441 45.7737 34.8318V32.7053C46.1753 32.7821 46.5179 32.8205 46.8015 32.8205C47.2977 32.8205 47.7318 32.6787 48.104 32.3952C48.482 32.1116 48.8305 31.6716 49.1495 31.075L49.3799 30.6408L47.9268 20.7347Z" fill="#29E568"/>
<path d="M64.8327 26.813C64.8327 28.0476 64.3956 29.0252 63.5214 29.7459C62.6471 30.4606 61.4628 30.818 59.9683 30.818C58.6628 30.818 57.6114 30.5522 56.8139 30.0206V27.5928C57.954 28.2307 59.0113 28.5497 59.986 28.5497C60.6476 28.5497 61.1644 28.4257 61.5366 28.1776C61.9087 27.9236 62.0948 27.578 62.0948 27.1409C62.0948 26.8869 62.0535 26.6654 61.9708 26.4763C61.894 26.2814 61.7817 26.1012 61.6341 25.9358C61.4864 25.7704 61.1201 25.4692 60.5353 25.0321C59.7202 24.4473 59.1472 23.8684 58.8164 23.2954C58.4856 22.7224 58.3202 22.1051 58.3202 21.4435C58.3202 20.6815 58.5033 20.0022 58.8696 19.4056C59.2358 18.8031 59.7556 18.3364 60.429 18.0056C61.1083 17.6689 61.8881 17.5006 62.7682 17.5006C64.05 17.5006 65.2226 17.793 66.2859 18.3778L65.3201 20.4423C64.3986 20.0052 63.5479 19.7866 62.7682 19.7866C62.2779 19.7866 61.8762 19.9195 61.5632 20.1853C61.2501 20.4511 61.0936 20.8026 61.0936 21.2397C61.0936 21.6001 61.191 21.9161 61.386 22.1878C61.5809 22.4536 62.018 22.8081 62.6973 23.2511C63.4121 23.7236 63.9467 24.2464 64.3011 24.8194C64.6555 25.3865 64.8327 26.051 64.8327 26.813Z" fill="white"/>
<path d="M72.2402 22.4714C71.7203 22.4714 71.23 22.7076 70.7693 23.1802C70.3085 23.6528 70.0073 24.2287 69.8655 24.908H70.2642C71.1798 24.908 71.8916 24.7662 72.3996 24.4827C72.9136 24.1933 73.1705 23.8034 73.1705 23.3131C73.1705 22.7519 72.8604 22.4714 72.2402 22.4714ZM70.787 30.818C69.5465 30.818 68.5837 30.4843 67.8985 29.8168C67.2133 29.1493 66.8706 28.2071 66.8706 26.9902C66.8706 25.7675 67.1128 24.654 67.5972 23.6498C68.0875 22.6397 68.7491 21.8718 69.582 21.3461C70.4149 20.8144 71.357 20.5486 72.4085 20.5486C73.454 20.5486 74.2692 20.7908 74.854 21.2752C75.4388 21.7536 75.7312 22.4123 75.7312 23.2511C75.7312 24.3557 75.238 25.2093 74.2515 25.8118C73.265 26.4084 71.8562 26.7067 70.025 26.7067H69.5731L69.5554 26.8928V27.07C69.5554 27.6075 69.706 28.0328 70.0073 28.3459C70.3145 28.6531 70.7516 28.8067 71.3186 28.8067C71.8326 28.8067 72.2992 28.7505 72.7186 28.6383C73.138 28.5261 73.646 28.3282 74.2426 28.0446V30.056C73.2266 30.564 72.0748 30.818 70.787 30.818Z" fill="white"/>
<path d="M83.5374 27.3712C83.5374 28.4818 83.1682 29.3353 82.4298 29.9319C81.6973 30.5227 80.6754 30.818 79.364 30.818C78.732 30.818 78.1797 30.7737 77.7071 30.6851C77.2405 30.5965 76.8033 30.4488 76.3958 30.2421V28.0446C77.3232 28.5763 78.2653 28.8421 79.2223 28.8421C79.6948 28.8421 80.0817 28.7476 80.383 28.5586C80.6843 28.3636 80.8349 28.1008 80.8349 27.77C80.8349 27.516 80.7256 27.2885 80.507 27.0877C80.2885 26.8869 79.9016 26.6329 79.3463 26.3257C78.6316 25.924 78.1324 25.5253 77.8489 25.1295C77.5653 24.7278 77.4236 24.2553 77.4236 23.7118C77.4236 22.7076 77.7485 21.9309 78.3982 21.3815C79.0539 20.8262 79.9872 20.5486 81.1982 20.5486C82.3855 20.5486 83.4576 20.8292 84.4146 21.3904L83.5374 23.2954C82.7104 22.7992 81.9484 22.5511 81.2513 22.5511C80.9146 22.5511 80.6429 22.6279 80.4362 22.7815C80.2294 22.9292 80.126 23.13 80.126 23.384C80.126 23.6144 80.2206 23.8182 80.4096 23.9954C80.5986 24.1667 80.953 24.3852 81.4728 24.6511C82.1994 25.0232 82.7251 25.4278 83.05 25.8649C83.3749 26.3021 83.5374 26.8042 83.5374 27.3712Z" fill="white"/>
<path d="M92.1321 27.3712C92.1321 28.4818 91.7629 29.3353 91.0245 29.9319C90.2921 30.5227 89.2701 30.818 87.9588 30.818C87.3267 30.818 86.7744 30.7737 86.3019 30.6851C85.8352 30.5965 85.3981 30.4488 84.9905 30.2421V28.0446C85.9179 28.5763 86.8601 28.8421 87.817 28.8421C88.2896 28.8421 88.6765 28.7476 88.9777 28.5586C89.279 28.3636 89.4296 28.1008 89.4296 27.77C89.4296 27.516 89.3204 27.2885 89.1018 27.0877C88.8832 26.8869 88.4963 26.6329 87.9411 26.3257C87.2263 25.924 86.7272 25.5253 86.4436 25.1295C86.1601 24.7278 86.0183 24.2553 86.0183 23.7118C86.0183 22.7076 86.3432 21.9309 86.993 21.3815C87.6487 20.8262 88.582 20.5486 89.7929 20.5486C90.9802 20.5486 92.0524 20.8292 93.0093 21.3904L92.1321 23.2954C91.3051 22.7992 90.5431 22.5511 89.8461 22.5511C89.5094 22.5511 89.2377 22.6279 89.0309 22.7815C88.8242 22.9292 88.7208 23.13 88.7208 23.384C88.7208 23.6144 88.8153 23.8182 89.0043 23.9954C89.1934 24.1667 89.5478 24.3852 90.0676 24.6511C90.7942 25.0232 91.3199 25.4278 91.6448 25.8649C91.9697 26.3021 92.1321 26.8042 92.1321 27.3712Z" fill="white"/>
<path d="M96.3763 30.6408H93.7093L95.8092 20.7347H98.4763L96.3763 30.6408ZM96.2345 18.4132C96.2345 17.8993 96.3734 17.5124 96.651 17.2525C96.9345 16.9867 97.3333 16.8538 97.8472 16.8538C98.2784 16.8538 98.6062 16.9453 98.8307 17.1284C99.0552 17.3116 99.1674 17.5744 99.1674 17.917C99.1674 18.3896 99.0374 18.7735 98.7775 19.0689C98.5176 19.3583 98.1159 19.5031 97.5725 19.5031C96.6805 19.5031 96.2345 19.1398 96.2345 18.4132Z" fill="white"/>
<path d="M105.901 24.4738C105.901 23.3102 105.479 22.7283 104.634 22.7283C104.191 22.7283 103.793 22.9085 103.438 23.2688C103.09 23.6291 102.803 24.1578 102.579 24.8548C102.36 25.5519 102.251 26.2696 102.251 27.008C102.251 28.1008 102.694 28.6472 103.58 28.6472C104.023 28.6472 104.422 28.467 104.776 28.1067C105.131 27.7404 105.405 27.2354 105.6 26.5915C105.801 25.9417 105.901 25.2358 105.901 24.4738ZM108.586 24.4738C108.586 25.7202 108.376 26.8248 107.957 27.7877C107.544 28.7505 106.944 29.4978 106.158 30.0294C105.373 30.5551 104.439 30.818 103.358 30.818C102.207 30.818 101.285 30.4724 100.594 29.7813C99.9087 29.0843 99.5661 28.1598 99.5661 27.008C99.5661 25.7498 99.7758 24.6304 100.195 23.6498C100.621 22.6633 101.232 21.9013 102.029 21.3638C102.827 20.8203 103.76 20.5486 104.829 20.5486C105.987 20.5486 106.903 20.8971 107.576 21.5942C108.249 22.2912 108.586 23.2511 108.586 24.4738Z" fill="white"/>
<path d="M118.04 30.6408H115.373L116.587 24.8548C116.682 24.4532 116.729 24.1017 116.729 23.8004C116.729 23.0739 116.41 22.7106 115.772 22.7106C115.229 22.7106 114.735 23.0473 114.292 23.7207C113.849 24.3941 113.501 25.3333 113.247 26.5384L112.378 30.6408H109.711L111.811 20.7347H113.849L113.663 22.5688H113.743C114.605 21.222 115.645 20.5486 116.862 20.5486C117.677 20.5486 118.306 20.7967 118.749 21.2929C119.198 21.7832 119.423 22.4861 119.423 23.4017C119.423 23.8329 119.355 24.3646 119.219 24.9966L118.04 30.6408Z" fill="white"/>
<path d="M15.9619 24.0879C20.1686 16.1418 25.5101 20.898 24.6688 21.2361C24.6688 21.2361 23.1544 26.4772 21.6174 28.6798C22.9091 27.3908 25.1736 27.3225 25.5101 25.1247C25.8636 22.8157 25.8316 20.8936 27.9545 19.6701C33.8773 15.4611 41.4493 13.6501 48.3482 12.2976C41.5699 12.7206 32.9671 15.3027 26.929 18.409C26.6998 18.527 26.3608 18.3361 26.3608 18.3361C20.4621 17.5167 17.308 19.9639 15.9619 24.0879Z" fill="#29E568"/>
<path d="M49.496 2.88512C47.9154 2.11123 45.2959 1.25193 45.2959 1.25193C45.2959 1.25193 45.4619 2.28219 45.4977 2.94843C45.5186 3.33827 45.5097 3.55762 45.5135 3.948C45.5318 5.84262 45.4112 6.90401 45.4153 8.7987C45.4179 9.9504 45.3094 10.6059 45.462 11.7474C45.6147 12.889 45.7876 13.367 45.7876 13.367C45.7876 13.367 48.3153 14.2481 50.0338 14.7495C51.8163 15.2696 54.6274 15.9766 54.6274 15.9766C54.6274 15.9766 53.8517 14.7419 53.5442 13.8691C53.0992 12.6058 53.0987 12.5749 53.0661 10.5103L53.0648 10.4273L52.9777 4.92963C52.9777 4.92963 50.9121 3.5785 49.496 2.88512Z" fill="#29E568"/>
<path d="M46.3624 6.35917L46.3019 2.5358L49.2724 3.86353L52.2996 5.61528L52.3483 8.68897L52.7471 13.3568L53.3523 15.2719L46.4692 13.1063L46.2757 11.9346L46.2504 10.3352L46.3624 6.35917Z" fill="#06895D"/>
<path d="M47.6546 4.28907C47.4478 4.43745 47.0057 4.34934 47.0057 4.34934C47.0057 4.34934 46.9918 6.75682 46.9682 8.29924C46.9476 9.64687 46.8979 11.7497 46.8979 11.7497C46.8979 11.7497 47.5845 11.8666 47.8792 12.1591C48.4887 12.764 48.2956 13.2024 48.2956 13.2024L51.6628 14.3238C51.6628 14.3238 51.641 13.9005 51.8033 13.7217C51.9446 13.5661 52.2999 13.5139 52.2999 13.5139C52.2999 13.5139 51.912 11.4107 51.845 10.0467C51.7808 8.7391 51.942 6.69576 51.942 6.69576C51.942 6.69576 51.4188 6.47477 51.2589 6.18166C51.1314 5.94777 51.1483 5.50853 51.1483 5.50853L47.922 3.80992C47.922 3.80992 47.8287 4.16416 47.6546 4.28907Z" fill="#09A867"/>
<path d="M51.2635 9.58087C51.1191 11.5078 50.8941 12.2113 49.9557 12.2261C48.6812 12.2463 47.8788 10.5076 47.8519 8.81004C47.8251 7.11249 48.5434 5.99958 49.4819 5.98472C50.4204 5.96986 51.2367 7.88332 51.2635 9.58087Z" fill="#29E568"/>
<path d="M42.1232 4.27639L45.299 1.20164C45.299 1.20164 45.4955 2.15437 45.5738 2.77201C45.8343 4.82701 45.4141 6.00226 45.4078 8.07371C45.4035 9.45964 45.2632 10.2509 45.464 11.6222C45.5605 12.2813 45.8153 13.2913 45.8153 13.2913C45.8153 13.2913 48.3003 14.1557 49.9111 14.6512C51.7795 15.226 54.7317 15.9997 54.7317 15.9997L52.5503 18.7337L43.9113 16.171C43.9113 16.171 43.1108 15.2417 42.7856 14.5391C42.4157 13.7397 42.3903 13.2177 42.251 12.3479C41.9515 10.4774 42.3364 9.39198 42.3242 7.49764C42.3189 6.66804 42.3774 6.1986 42.2906 5.37355C42.2452 4.94251 42.1232 4.27639 42.1232 4.27639Z" fill="#06895D"/>
<path d="M45.6507 5.54564L53.0522 8.87785L53.0743 10.2772L53.3742 10.2725L54.5864 11.0532L55.7604 12.5843L57.1157 14.5125L58.2049 15.4201L58.0859 15.7969L57.4421 16.182L56.3898 16.0237L56.172 16.4771L55.5278 16.8372L54.6726 16.5008L54.7904 16.0491L53.7612 14.1907L53.3114 12.6231L45.4403 9.62326L44.0329 10.7204L42.507 12.2193L41.1405 12.7408L40.2837 12.5497L40.2949 11.6454L39.8311 12.6109L38.9898 13.1491L37.3321 12.9735L36.6023 12.6601L36.3811 12.2158L37.4005 11.7125L35.9859 11.4578L35.0732 10.6474L35.5381 10.0152L37.0328 9.69157L38.7659 9.19397L40.9419 8.09476L42.9605 7.71286L45.6507 5.54564Z" fill="white"/>
<path d="M36.5922 10.466C36.3525 10.5328 35.9694 10.6008 35.9694 10.6008C35.9694 10.6008 36.8036 11.1875 37.1514 11.057C37.4564 10.9426 37.2633 10.2304 37.2633 10.2304C37.2633 10.2304 36.8597 10.3914 36.5922 10.466Z" fill="#B3EFFF"/>
<path d="M38.0151 11.8934C38.2084 11.7712 38.459 11.5114 38.459 11.5114C38.459 11.5114 38.5986 11.8001 38.7406 11.9319C38.878 12.0595 39.1693 12.1751 39.1693 12.1751C39.1693 12.1751 38.7009 12.4351 38.3736 12.4376C38.0092 12.4405 37.4939 12.1266 37.4939 12.1266C37.4939 12.1266 37.8266 12.0126 38.0151 11.8934Z" fill="#B3EFFF"/>
<path d="M41.0327 12.2428C40.927 12.0301 41.1231 11.6414 41.1231 11.6414C41.1231 11.6414 41.303 11.8194 41.4515 11.8612C42.2299 12.0802 43.2318 9.82776 43.1429 8.95432C43.1005 8.53735 42.6281 8.01264 42.6281 8.01264C42.6281 8.01264 44.2147 7.97502 44.444 9.0337C44.5652 9.59359 43.8065 9.81866 43.436 10.0995C43.2035 10.2757 42.4277 11.9457 42.4277 11.9457C42.4277 11.9457 41.9108 12.4538 41.5622 12.5343C41.3322 12.5874 41.1377 12.4542 41.0327 12.2428Z" fill="#B3EFFF"/>
<path d="M44.4637 9.91934C43.9586 10.3374 42.9165 11.4595 42.9165 11.4595C42.9165 11.4595 43.3158 10.4974 43.586 10.2827C43.9069 10.0277 44.1015 9.92917 44.3728 9.69991C44.7724 9.36227 44.8533 9.03879 44.6677 8.54966C44.4552 7.98935 43.5934 7.7409 43.5934 7.7409C43.5934 7.7409 44.2711 7.2778 44.6806 6.94882C45.1123 6.60209 45.7405 6.0072 45.7405 6.0072C45.7405 6.0072 45.7835 6.16761 45.7445 6.25709C45.6239 6.53395 45.6475 7.04274 45.6155 7.5839C45.5564 8.58466 45.5302 8.51009 45.6365 8.90833C45.6854 9.09143 45.6652 9.24399 45.5441 9.38471C45.3477 9.61278 44.91 9.5499 44.4637 9.91934Z" fill="#B3EFFF"/>
<path d="M45.936 7.30387L45.9689 9.37799C45.9689 9.37799 46.1519 8.60362 46.2018 8.29949C46.3003 7.69804 46.5092 7.19482 46.3736 6.52208C46.3392 6.35173 46.0194 6.25274 46.0194 6.25274C46.0194 6.25274 45.9259 6.66248 45.936 7.30387Z" fill="#B3EFFF"/>
<path d="M41.0327 12.2428C40.927 12.0301 41.1231 11.6414 41.1231 11.6414C41.1231 11.6414 41.303 11.8194 41.4515 11.8612C42.2299 12.0802 43.2318 9.82776 43.1429 8.95432C43.1005 8.53735 42.6281 8.01264 42.6281 8.01264C42.6281 8.01264 44.2147 7.97502 44.444 9.0337C44.5652 9.59359 43.8065 9.81866 43.436 10.0995C43.2035 10.2757 42.4277 11.9457 42.4277 11.9457C42.4277 11.9457 41.9108 12.4538 41.5622 12.5343C41.3322 12.5874 41.1377 12.4542 41.0327 12.2428Z" stroke="black"/>
<path d="M44.4637 9.91934C43.9586 10.3374 42.9165 11.4595 42.9165 11.4595C42.9165 11.4595 43.3158 10.4974 43.586 10.2827C43.9069 10.0277 44.1015 9.92917 44.3728 9.69991C44.7724 9.36227 44.8533 9.03879 44.6677 8.54966C44.4552 7.98935 43.5934 7.7409 43.5934 7.7409C43.5934 7.7409 44.2711 7.2778 44.6806 6.94882C45.1123 6.60209 45.7405 6.0072 45.7405 6.0072C45.7405 6.0072 45.7835 6.16761 45.7445 6.25709C45.6239 6.53395 45.6475 7.04274 45.6155 7.5839C45.5564 8.58466 45.5302 8.51009 45.6365 8.90833C45.6854 9.09143 45.6652 9.24399 45.5441 9.38471C45.3477 9.61278 44.91 9.5499 44.4637 9.91934Z" stroke="black"/>
<path d="M45.936 7.30387L45.9689 9.37799C45.9689 9.37799 46.1519 8.60362 46.2018 8.29949C46.3003 7.69804 46.5092 7.19482 46.3736 6.52208C46.3392 6.35173 46.0194 6.25274 46.0194 6.25274C46.0194 6.25274 45.9259 6.66248 45.936 7.30387Z" stroke="black"/>
<path d="M51.9635 11.2196C51.7685 11.3812 51.3935 11.5286 51.3935 11.5286L52.9027 12.1296C52.9027 12.1296 52.8064 11.5688 52.7631 11.207C52.6726 10.4505 52.6573 9.259 52.6573 9.259L52.355 9.11381C52.355 9.11381 52.6076 10.686 51.9635 11.2196Z" fill="#B3EFFF"/>
<path d="M54.0296 13.7863L53.6973 13.3167C53.6973 13.3167 53.8492 13.8862 53.9868 14.2369C54.1812 14.7327 54.6059 15.4519 54.6059 15.4519L55.091 16.0941L54.9938 16.2706C55.0861 16.3108 55.2857 16.391 55.3456 16.39L55.7955 16.3829C55.7955 16.3829 55.1494 15.8832 54.8308 15.4483C54.4181 14.8849 54.0296 13.7863 54.0296 13.7863Z" fill="#B3EFFF"/>
<path d="M54.0377 11.1367C53.8359 11.0233 53.4123 10.7917 53.332 10.7729L53.4197 11.5714C53.4197 11.5714 53.7099 11.5938 53.8952 11.6139C54.2095 11.6478 54.6969 11.7262 54.6969 11.7262C54.6969 11.7262 54.2394 11.2502 54.0377 11.1367Z" fill="#B3EFFF"/>
<path d="M56.0442 14.7293C55.7445 14.3058 55.1787 13.7432 55.1787 13.7432L55.6459 14.8356C55.6459 14.8356 55.789 15.0713 55.9018 15.2065C56.0654 15.4026 56.1546 15.5357 56.3837 15.6487C56.6068 15.7588 57.0104 15.7638 57.0104 15.7638C57.0104 15.7638 56.3766 15.1989 56.0442 14.7293Z" fill="#B3EFFF"/>
<path d="M54.8574 15.9978C54.8574 15.9978 53.6915 14.2837 53.4855 13.0201C53.4649 12.8939 53.4414 12.6958 53.4414 12.6958M54.8574 15.9978C54.8574 15.9978 52.1358 15.379 50.4157 14.8933C48.6424 14.3927 45.9188 13.4648 45.9188 13.4648M54.8574 15.9978L54.6185 16.3022M53.0045 9.4783C52.9998 9.21475 53.0088 8.80335 53.0088 8.80335M53.0045 9.4783C53.0087 9.71789 53.027 9.98184 53.0538 10.2524M53.0045 9.4783L53.0538 10.2524M45.4255 1.24977C45.4255 1.24977 47.2767 1.86982 48.4178 2.37718C49.7189 2.9557 50.4347 3.32419 51.6441 4.07579C52.1983 4.42019 53.0336 5.00362 53.0336 5.00362L53.0088 8.80335M45.4255 1.24977C45.4255 1.24977 45.6177 2.47731 45.6574 3.27074C45.6999 4.11931 45.6169 5.446 45.6169 5.446M45.4255 1.24977L44.8221 1.81908M45.6169 5.446C45.6169 5.446 47.8102 6.44947 49.2173 7.08869C50.6968 7.76084 53.0088 8.80335 53.0088 8.80335M45.6169 5.446L44.9014 6.03722M43.0262 7.58665L42.3285 7.72267M43.0262 7.58665C43.0262 7.58665 43.1163 6.30531 43.068 5.48635C43.0263 4.7805 42.8389 3.6903 42.8389 3.6903M43.0262 7.58665L43.6739 7.05148M43.0262 7.58665C43.0262 7.58665 43.6161 7.69622 43.931 7.89726C44.1986 8.06811 44.364 8.18356 44.5149 8.46292C44.6206 8.65877 44.6543 8.80531 44.6554 9.03559C44.6591 9.73449 43.6156 10.0813 43.3942 10.3053C43.1728 10.5293 43.0429 11.2653 42.6425 11.767C42.4846 11.9648 42.2001 12.2406 42.2001 12.2406M42.3285 7.72267C42.3285 7.72267 42.4527 6.76364 42.4535 6.14597C42.4546 5.39216 42.2731 4.22416 42.2731 4.22416L42.8389 3.6903M42.3285 7.72267C42.3285 7.72267 41.6689 7.87623 41.2583 8.01457C40.1829 8.37697 40.031 8.6637 38.9846 9.10298C38.5665 9.27847 37.8024 9.54432 37.2705 9.72981C36.8584 9.87354 36.4225 9.83202 35.9731 9.86413C35.6241 9.88907 35.2871 9.98596 35.2056 10.3262C35.157 10.5291 35.2462 10.7005 35.336 10.8888C35.4258 11.0772 35.7101 11.2171 36.0358 11.352C36.4385 11.5189 37.1976 11.6604 37.1976 11.6604M42.8389 3.6903L43.5538 3.01581M43.5538 3.01581C43.5538 3.01581 43.6397 3.73761 43.6725 4.20201C43.7509 5.31203 43.6739 7.05148 43.6739 7.05148M43.5538 3.01581L44.2187 2.3884M43.6739 7.05148L44.3216 6.51632M44.3216 6.51632C44.3216 6.51632 44.3337 5.22134 44.3254 4.39163C44.3213 3.98173 44.3153 3.75196 44.3088 3.34208C44.3023 2.93221 44.2187 2.3884 44.2187 2.3884M44.3216 6.51632L44.9014 6.03722M44.2187 2.3884L44.8221 1.81908M44.8221 1.81908C44.8221 1.81908 44.8918 2.32918 44.9229 2.65748C45.0473 3.97149 44.9014 6.03722 44.9014 6.03722M37.1976 11.6604C37.1976 11.6604 37.6877 11.535 38.0293 11.4081C38.459 11.2483 38.6785 11.1575 39.004 10.8748C39.3296 10.592 39.6934 10.214 39.6934 10.214M37.1976 11.6604C37.1976 11.6604 36.2269 12.0683 36.5088 12.4453C37.0935 13.2274 39.0263 13.0348 39.2001 12.957C39.3738 12.8793 39.8118 12.6686 40.0148 12.3193C40.1577 12.0735 40.2941 11.6453 40.2941 11.6453M40.2941 11.6453C40.2941 11.6453 40.4048 11.4096 40.487 11.1798C40.6327 10.7728 40.8085 10.4042 40.8085 10.4042M40.2941 11.6453C40.2941 11.6453 40.1832 12.1986 40.3473 12.3944C40.4734 12.5449 40.7953 12.6824 40.9457 12.705C41.2618 12.7526 41.7255 12.6723 41.9789 12.4774C42.0792 12.4002 42.2001 12.2406 42.2001 12.2406M42.2001 12.2406L42.2544 12.5119M53.0893 18.2504L52.6522 18.8072L43.9382 16.2457C43.9382 16.2457 42.8551 14.8969 42.5258 13.8685C42.361 13.3539 42.2544 12.5119 42.2544 12.5119M53.0893 18.2504C53.0893 18.2504 50.4198 17.5657 48.7254 17.0697C46.9778 16.5582 44.279 15.6654 44.279 15.6654C44.279 15.6654 43.5647 14.6147 43.3005 13.8562C43.0466 13.1274 42.9654 12.6837 42.9448 11.9122M53.0893 18.2504L53.4853 17.7459M42.9448 11.9122C42.6751 12.1464 42.2544 12.5119 42.2544 12.5119M42.9448 11.9122C43.1853 11.6936 43.3202 11.5711 43.5608 11.3525M43.5608 11.3525C43.5585 11.8122 43.5792 12.0724 43.6544 12.5258C43.8346 13.6134 44.6709 15.1593 44.6709 15.1593L53.4853 17.7459M43.5608 11.3525C43.8103 11.085 43.9503 10.935 44.1998 10.6675M53.4853 17.7459L53.9018 17.2152M53.9018 17.2152C53.9018 17.2152 50.5782 16.3533 48.4788 15.6989C47.1261 15.2772 45.0362 14.5536 45.0362 14.5536C45.0362 14.5536 44.4897 13.3423 44.3291 12.5151C44.1912 11.8051 44.1622 11.3898 44.1998 10.6675M53.9018 17.2152L54.3796 16.6065M44.1998 10.6675C44.4113 10.4592 44.5298 10.3424 44.7413 10.134M44.7413 10.134C44.7527 10.7702 44.786 11.129 44.8919 11.7564C45.0397 12.6317 45.5015 13.9463 45.5015 13.9463C45.5015 13.9463 48.2637 14.988 50.0757 15.5236C51.7378 16.0149 54.3796 16.6065 54.3796 16.6065M44.7413 10.134C45.0406 9.92431 45.5076 9.597 45.5076 9.597M54.3796 16.6065L54.6185 16.3022M45.9188 13.4648L44.5303 15.3365M45.9188 13.4648C45.9188 13.4648 45.6168 12.2753 45.5377 11.4962C45.4628 10.7582 45.5076 9.597 45.5076 9.597M45.5076 9.597L53.4414 12.6958M53.4414 12.6958C53.4414 12.6958 53.1688 11.4134 53.0538 10.2524M53.0538 10.2524C53.0538 10.2524 53.9764 10.6076 54.478 10.9797C55.3956 11.6605 55.6528 12.5608 56.1902 13.3522C56.5039 13.814 56.675 14.0821 57.0581 14.4882C57.4757 14.9311 58.374 14.8985 58.2488 15.4942C58.1503 15.9631 57.7088 16.1146 57.2349 16.1851C56.792 16.251 56.1302 15.8777 56.1302 15.8777M56.1302 15.8777C56.1302 15.8777 55.7383 15.4505 55.5436 15.1371C55.1593 14.5183 54.9408 13.3719 54.9408 13.3719M56.1302 15.8777C56.1302 15.8777 56.2655 16.2931 56.1401 16.5024C56.0386 16.672 55.9064 16.7192 55.7197 16.784C55.4891 16.864 55.3198 16.8886 55.0949 16.7939C54.9104 16.7162 54.7146 16.45 54.7146 16.45L54.6185 16.3022" stroke="#080F66" stroke-linecap="round"/>
<path d="M45.7101 6.16935C45.7101 6.16935 45.6228 7.14599 45.6081 7.62071C45.5879 8.27092 45.5759 8.74602 45.5759 8.74602" stroke="#080F66" stroke-linecap="round"/>
</svg>
