<svg width="263" height="76" viewBox="0 0 263 76" fill="none" xmlns="http://www.w3.org/2000/svg">
<path d="M15.3471 59.0391L26.0531 37.7247H34.3019L28.2762 66.2349H22.816L25.6436 52.7403C26.1116 50.5432 26.8201 47.6766 27.7692 44.1404H27.5937L16.4977 66.2349H11.018L9.82841 44.1404H9.67241C9.38639 46.5065 8.87937 49.4512 8.15134 52.9743L5.36273 66.2349H0L6.02575 37.7247H13.9041L15.1716 59.0391H15.3471Z" fill="#29E568"/>
<path d="M49.8051 52.6623C49.8051 50.1012 48.8755 48.8206 47.0165 48.8206C46.0414 48.8206 45.1639 49.2172 44.3839 50.0102C43.6168 50.8032 42.9863 51.9668 42.4923 53.5008C42.0113 55.0349 41.7708 56.6145 41.7708 58.2395C41.7708 60.6446 42.7458 61.8472 44.6959 61.8472C45.6709 61.8472 46.5485 61.4507 47.3285 60.6576C48.1085 59.8516 48.713 58.7401 49.1421 57.323C49.5841 55.8929 49.8051 54.3394 49.8051 52.6623ZM55.7138 52.6623C55.7138 55.4054 55.2523 57.8365 54.3293 59.9556C53.4192 62.0747 52.0997 63.7193 50.3706 64.8893C48.6415 66.0464 46.5875 66.6249 44.2084 66.6249C41.6732 66.6249 39.6452 65.8644 38.1241 64.3433C36.616 62.8092 35.862 60.7746 35.862 58.2395C35.862 55.4704 36.3235 53.0068 37.2466 50.8487C38.1826 48.6776 39.5282 47.0006 41.2832 45.8175C43.0383 44.6215 45.0924 44.0234 47.4455 44.0234C49.9936 44.0234 52.0087 44.7905 53.4907 46.3245C54.9728 47.8586 55.7138 49.9712 55.7138 52.6623Z" fill="#29E568"/>
<path d="M76.5212 66.2349H70.6515L73.3231 53.5008C73.5311 52.6168 73.6351 51.8433 73.6351 51.1802C73.6351 49.5812 72.9331 48.7816 71.529 48.7816C70.333 48.7816 69.2474 49.5227 68.2724 51.0047C67.2973 52.4868 66.5303 54.5539 65.9713 57.206L64.0602 66.2349H58.1904L62.8121 44.433H67.2973L66.8878 48.4696H67.0633C68.9614 45.5055 71.2495 44.0234 73.9276 44.0234C75.7217 44.0234 77.1062 44.5695 78.0813 45.6615C79.0693 46.7406 79.5633 48.2876 79.5633 50.3027C79.5633 51.2517 79.4138 52.4218 79.1148 53.8129L76.5212 66.2349Z" fill="#29E568"/>
<path d="M95.1835 48.2551C94.0394 48.2551 92.9604 48.7751 91.9464 49.8152C90.9323 50.8552 90.2693 52.1228 89.9573 53.6178H90.8348C92.8499 53.6178 94.4165 53.3058 95.5345 52.6818C96.6656 52.0448 97.2311 51.1867 97.2311 50.1077C97.2311 48.8726 96.5486 48.2551 95.1835 48.2551ZM91.9854 66.6249C89.2552 66.6249 87.1362 65.8904 85.6281 64.4213C84.12 62.9522 83.366 60.8787 83.366 58.2005C83.366 55.5094 83.899 53.0588 84.9651 50.8487C86.0441 48.6256 87.5002 46.9356 89.3333 45.7785C91.1663 44.6085 93.2399 44.0234 95.554 44.0234C97.8551 44.0234 99.6492 44.5565 100.936 45.6225C102.223 46.6756 102.867 48.1251 102.867 49.9712C102.867 52.4023 101.781 54.2809 99.6102 55.6069C97.4391 56.92 94.3385 57.5765 90.3083 57.5765H89.3138L89.2747 57.986V58.376C89.2747 59.5591 89.6063 60.4951 90.2693 61.1842C90.9453 61.8602 91.9074 62.1982 93.1554 62.1982C94.2865 62.1982 95.3135 62.0747 96.2365 61.8277C97.1596 61.5807 98.2776 61.1452 99.5907 60.5211V64.9478C97.3546 66.0659 94.8195 66.6249 91.9854 66.6249Z" fill="#29E568"/>
<path d="M105.48 44.433H111.233L112.325 54.5344C112.481 55.8994 112.559 57.804 112.559 60.2481H112.715C112.975 59.5851 113.261 58.8116 113.573 57.9275C113.885 57.0305 114.307 56.0294 114.84 54.9244L119.911 44.433H126.287L113.027 69.355C110.726 73.6712 107.586 75.8293 103.608 75.8293C102.438 75.8293 101.482 75.7058 100.741 75.4588V70.7786C101.625 70.9476 102.379 71.0321 103.003 71.0321C104.095 71.0321 105.051 70.7201 105.87 70.096C106.702 69.472 107.469 68.5035 108.171 67.1904L108.678 66.2349L105.48 44.433Z" fill="#29E568"/>
<path d="M142.687 57.8105C142.687 60.5276 141.725 62.6792 139.801 64.2653C137.877 65.8384 135.271 66.6249 131.982 66.6249C129.108 66.6249 126.794 66.0399 125.039 64.8698V59.5266C127.548 60.9307 129.875 61.6327 132.021 61.6327C133.477 61.6327 134.614 61.3597 135.433 60.8136C136.252 60.2546 136.662 59.4941 136.662 58.5321C136.662 57.973 136.571 57.4855 136.389 57.0695C136.22 56.6405 135.973 56.244 135.648 55.8799C135.323 55.5159 134.517 54.8529 133.23 53.8909C131.436 52.6038 130.174 51.3297 129.446 50.0687C128.718 48.8076 128.354 47.4491 128.354 45.993C128.354 44.316 128.757 42.8209 129.563 41.5078C130.369 40.1818 131.514 39.1547 132.996 38.4267C134.491 37.6857 136.207 37.3152 138.144 37.3152C140.965 37.3152 143.546 37.9587 145.886 39.2457L143.76 43.7894C141.732 42.8274 139.86 42.3464 138.144 42.3464C137.065 42.3464 136.181 42.6389 135.492 43.2239C134.803 43.8089 134.458 44.5825 134.458 45.5445C134.458 46.3375 134.673 47.0331 135.102 47.6311C135.531 48.2161 136.493 48.9962 137.988 49.9712C139.561 51.0112 140.737 52.1618 141.517 53.4228C142.297 54.6709 142.687 56.1335 142.687 57.8105Z" fill="white"/>
<path d="M158.99 48.2551C157.846 48.2551 156.767 48.7751 155.753 49.8152C154.739 50.8552 154.076 52.1228 153.764 53.6178H154.641C156.657 53.6178 158.223 53.3058 159.341 52.6818C160.472 52.0448 161.038 51.1867 161.038 50.1077C161.038 48.8726 160.355 48.2551 158.99 48.2551ZM155.792 66.6249C153.062 66.6249 150.943 65.8904 149.435 64.4213C147.927 62.9522 147.173 60.8787 147.173 58.2005C147.173 55.5094 147.706 53.0588 148.772 50.8487C149.851 48.6256 151.307 46.9356 153.14 45.7785C154.973 44.6085 157.047 44.0234 159.361 44.0234C161.662 44.0234 163.456 44.5565 164.743 45.6225C166.03 46.6756 166.673 48.1251 166.673 49.9712C166.673 52.4023 165.588 54.2809 163.417 55.6069C161.246 56.92 158.145 57.5765 154.115 57.5765H153.12L153.081 57.986V58.376C153.081 59.5591 153.413 60.4951 154.076 61.1842C154.752 61.8602 155.714 62.1982 156.962 62.1982C158.093 62.1982 159.12 62.0747 160.043 61.8277C160.966 61.5807 162.084 61.1452 163.397 60.5211V64.9478C161.161 66.0659 158.626 66.6249 155.792 66.6249Z" fill="white"/>
<path d="M183.854 59.0391C183.854 61.4832 183.041 63.3618 181.416 64.6748C179.804 65.9749 177.555 66.6249 174.669 66.6249C173.278 66.6249 172.062 66.5274 171.022 66.3324C169.995 66.1374 169.033 65.8124 168.136 65.3573V60.5211C170.177 61.6912 172.251 62.2762 174.357 62.2762C175.397 62.2762 176.248 62.0682 176.911 61.6522C177.574 61.2232 177.906 60.6446 177.906 59.9166C177.906 59.3576 177.665 58.8571 177.184 58.415C176.703 57.973 175.852 57.414 174.63 56.738C173.057 55.8539 171.958 54.9764 171.334 54.1054C170.71 53.2213 170.398 52.1813 170.398 50.9852C170.398 48.7751 171.113 47.0656 172.543 45.8565C173.986 44.6345 176.04 44.0234 178.706 44.0234C181.319 44.0234 183.678 44.641 185.784 45.876L183.854 50.0687C182.034 48.9767 180.357 48.4306 178.823 48.4306C178.081 48.4306 177.483 48.5996 177.028 48.9376C176.573 49.2627 176.346 49.7047 176.346 50.2637C176.346 50.7707 176.554 51.2192 176.97 51.6093C177.386 51.9863 178.166 52.4673 179.31 53.0523C180.909 53.8714 182.066 54.7619 182.781 55.7239C183.496 56.686 183.854 57.791 183.854 59.0391Z" fill="white"/>
<path d="M202.77 59.0391C202.77 61.4832 201.957 63.3618 200.332 64.6748C198.72 65.9749 196.471 66.6249 193.585 66.6249C192.194 66.6249 190.978 66.5274 189.938 66.3324C188.911 66.1374 187.949 65.8124 187.052 65.3573V60.5211C189.093 61.6912 191.167 62.2762 193.273 62.2762C194.313 62.2762 195.164 62.0682 195.827 61.6522C196.49 61.2232 196.822 60.6446 196.822 59.9166C196.822 59.3576 196.581 58.8571 196.1 58.415C195.619 57.973 194.768 57.414 193.546 56.738C191.973 55.8539 190.874 54.9764 190.25 54.1054C189.626 53.2213 189.314 52.1813 189.314 50.9852C189.314 48.7751 190.029 47.0656 191.459 45.8565C192.902 44.6345 194.956 44.0234 197.621 44.0234C200.234 44.0234 202.594 44.641 204.7 45.876L202.77 50.0687C200.949 48.9767 199.272 48.4306 197.738 48.4306C196.997 48.4306 196.399 48.5996 195.944 48.9376C195.489 49.2627 195.262 49.7047 195.262 50.2637C195.262 50.7707 195.47 51.2192 195.886 51.6093C196.302 51.9863 197.082 52.4673 198.226 53.0523C199.825 53.8714 200.982 54.7619 201.697 55.7239C202.412 56.686 202.77 57.791 202.77 59.0391Z" fill="white"/>
<path d="M212.11 66.2349H206.241L210.862 44.433H216.732L212.11 66.2349ZM211.798 39.3237C211.798 38.1927 212.104 37.3412 212.715 36.7691C213.339 36.1841 214.216 35.8916 215.348 35.8916C216.297 35.8916 217.018 36.0931 217.512 36.4961C218.006 36.8991 218.253 37.4777 218.253 38.2317C218.253 39.2717 217.967 40.1168 217.395 40.7668C216.823 41.4038 215.939 41.7223 214.743 41.7223C212.78 41.7223 211.798 40.9228 211.798 39.3237Z" fill="white"/>
<path d="M233.074 52.6623C233.074 50.1012 232.144 48.8206 230.285 48.8206C229.31 48.8206 228.433 49.2172 227.653 50.0102C226.886 50.8032 226.255 51.9668 225.761 53.5008C225.28 55.0349 225.039 56.6145 225.039 58.2395C225.039 60.6446 226.014 61.8472 227.965 61.8472C228.94 61.8472 229.817 61.4507 230.597 60.6576C231.377 59.8516 231.982 58.7401 232.411 57.323C232.853 55.8929 233.074 54.3394 233.074 52.6623ZM238.983 52.6623C238.983 55.4054 238.521 57.8365 237.598 59.9556C236.688 62.0747 235.368 63.7193 233.639 64.8893C231.91 66.0464 229.856 66.6249 227.477 66.6249C224.942 66.6249 222.914 65.8644 221.393 64.3433C219.885 62.8092 219.131 60.7746 219.131 58.2395C219.131 55.4704 219.592 53.0068 220.515 50.8487C221.451 48.6776 222.797 47.0006 224.552 45.8175C226.307 44.6215 228.361 44.0234 230.714 44.0234C233.262 44.0234 235.277 44.7905 236.759 46.3245C238.242 47.8586 238.983 49.9712 238.983 52.6623Z" fill="white"/>
<path d="M259.79 66.2349H253.92L256.592 53.5008C256.8 52.6168 256.904 51.8433 256.904 51.1802C256.904 49.5812 256.202 48.7816 254.798 48.7816C253.602 48.7816 252.516 49.5227 251.541 51.0047C250.566 52.4868 249.799 54.5539 249.24 57.206L247.329 66.2349H241.459L246.081 44.433H250.566L250.156 48.4696H250.332C252.23 45.5055 254.518 44.0234 257.196 44.0234C258.99 44.0234 260.375 44.5695 261.35 45.6615C262.338 46.7406 262.832 48.2876 262.832 50.3027C262.832 51.2517 262.683 52.4218 262.384 53.8129L259.79 66.2349Z" fill="white"/>
<path d="M35.1299 51.813C44.3881 34.3247 56.1441 44.7925 54.2924 45.5367C54.2924 45.5367 50.9595 57.0715 47.5768 61.9191C50.4197 59.0822 55.4034 58.9319 56.1441 54.0947C56.9222 49.0131 56.8516 44.7828 61.5238 42.0901C74.5592 32.8266 91.224 28.841 106.408 25.8643C91.4893 26.7951 72.5558 32.478 59.2668 39.3145C58.7624 39.5743 58.0164 39.1541 58.0164 39.1541C45.0342 37.3507 38.0925 42.7366 35.1299 51.813Z" fill="#29E568"/>
<path d="M108.935 5.14838C105.457 3.44515 99.6914 1.55394 99.6914 1.55394C99.6914 1.55394 100.057 3.82141 100.136 5.28771C100.182 6.1457 100.162 6.62843 100.17 7.48762C100.211 11.6574 99.9452 13.9934 99.9543 18.1633C99.9599 20.698 99.7212 22.1407 100.057 24.6531C100.393 27.1654 100.774 28.2175 100.774 28.2175C100.774 28.2175 106.337 30.1567 110.119 31.2602C114.042 32.4048 120.229 33.9607 120.229 33.9607C120.229 33.9607 118.521 31.2434 117.845 29.3225C116.865 26.5422 116.864 26.4741 116.793 21.9302L116.79 21.7476L116.598 9.64803C116.598 9.64803 112.052 6.67441 108.935 5.14838Z" fill="#29E568"/>
<path d="M102.039 12.7943L101.905 4.37965L108.443 7.30178L115.106 11.1571L115.213 17.9219L116.091 28.1952L117.423 32.41L102.274 27.6438L101.848 25.065L101.792 21.5451L102.039 12.7943Z" fill="#06895D"/>
<path d="M104.883 8.23812C104.428 8.56466 103.455 8.37075 103.455 8.37075C103.455 8.37075 103.424 13.6693 103.372 17.0639C103.327 20.0298 103.217 24.658 103.217 24.658C103.217 24.658 104.729 24.9152 105.377 25.559C106.719 26.8901 106.294 27.855 106.294 27.855L113.704 30.3232C113.704 30.3232 113.656 29.3915 114.013 28.998C114.324 28.6554 115.106 28.5406 115.106 28.5406C115.106 28.5406 114.253 23.9117 114.105 20.9098C113.964 18.032 114.319 13.5349 114.319 13.5349C114.319 13.5349 113.167 13.0485 112.816 12.4034C112.535 11.8887 112.572 10.922 112.572 10.922L105.471 7.18358C105.471 7.18358 105.266 7.96319 104.883 8.23812Z" fill="#09A867"/>
<path d="M112.825 19.8851C112.507 24.126 112.012 25.6742 109.946 25.7069C107.141 25.7513 105.375 21.9246 105.316 18.1886C105.257 14.4525 106.838 12.0032 108.904 11.9705C110.969 11.9378 112.766 16.149 112.825 19.8851Z" fill="#29E568"/>
<path d="M92.7093 8.21059L99.6987 1.44351C99.6987 1.44351 100.131 3.54033 100.304 4.89967C100.877 9.42244 99.9521 12.009 99.9381 16.5679C99.9288 19.6182 99.62 21.3596 100.062 24.3777C100.274 25.8282 100.835 28.0512 100.835 28.0512C100.835 28.0512 106.304 29.9535 109.849 31.0441C113.961 32.3091 120.459 34.0118 120.459 34.0118L115.658 40.0291L96.6445 34.3889C96.6445 34.3889 94.8828 32.3437 94.1672 30.7973C93.353 29.0381 93.2971 27.889 92.9906 25.9749C92.3313 21.8581 93.1784 19.4693 93.1516 15.3001C93.1399 13.4743 93.2687 12.4411 93.0776 10.6253C92.9777 9.67662 92.7093 8.21059 92.7093 8.21059Z" fill="#06895D"/>
<path d="M100.471 11.0037L116.761 18.3374L116.809 21.4173L117.469 21.4068L120.137 23.125L122.721 26.4948L125.704 30.7385L128.101 32.7359L127.839 33.5653L126.422 34.4129L124.106 34.0645L123.627 35.0623L122.209 35.8549L120.327 35.1145L120.586 34.1202L118.321 30.0302L117.331 26.5801L100.008 19.9779L96.9105 22.3925L93.552 25.6913L90.5445 26.8392L88.6589 26.4186L88.6835 24.4285L87.6628 26.5532L85.8111 27.7378L82.163 27.3513L80.5567 26.6616L80.0699 25.6838L82.3134 24.5761L79.2001 24.0156L77.1915 22.232L78.2146 20.8405L81.5041 20.1283L85.3184 19.0331L90.1076 16.6139L94.5502 15.7734L100.471 11.0037Z" fill="white"/>
<path d="M80.5361 21.8331C80.0086 21.9802 79.1655 22.1298 79.1655 22.1298C79.1655 22.1298 81.0013 23.421 81.767 23.1339C82.4382 22.8821 82.0132 21.3146 82.0132 21.3146C82.0132 21.3146 81.125 21.6688 80.5361 21.8331Z" fill="#B3EFFF"/>
<path d="M83.6661 24.9742C84.0915 24.7052 84.643 24.1335 84.643 24.1335C84.643 24.1335 84.9503 24.7688 85.2627 25.0589C85.5651 25.3397 86.2064 25.5941 86.2064 25.5941C86.2064 25.5941 85.1753 26.1663 84.4552 26.1719C83.6532 26.1782 82.5189 25.4874 82.5189 25.4874C82.5189 25.4874 83.2512 25.2364 83.6661 24.9742Z" fill="#B3EFFF"/>
<path d="M90.3085 25.7431C90.0759 25.275 90.5076 24.4196 90.5076 24.4196C90.5076 24.4196 90.9034 24.8113 91.2304 24.9033C92.9434 25.3854 95.1484 20.428 94.9529 18.5057C94.8596 17.588 93.8199 16.4332 93.8199 16.4332C93.8199 16.4332 97.3118 16.3504 97.8163 18.6804C98.0831 19.9127 96.4133 20.408 95.5979 21.026C95.0862 21.4139 93.3788 25.0893 93.3788 25.0893C93.3788 25.0893 92.2412 26.2076 91.4739 26.3848C90.9677 26.5017 90.5397 26.2084 90.3085 25.7431Z" fill="#B3EFFF"/>
<path d="M97.8597 20.6296C96.748 21.5497 94.4545 24.0193 94.4545 24.0193C94.4545 24.0193 95.3334 21.9019 95.9279 21.4294C96.6342 20.8681 97.0626 20.6512 97.6597 20.1467C98.5392 19.4036 98.7172 18.6916 98.3088 17.6151C97.841 16.382 95.9442 15.8351 95.9442 15.8351C95.9442 15.8351 97.4358 14.8159 98.3371 14.0919C99.2872 13.3288 100.67 12.0195 100.67 12.0195C100.67 12.0195 100.764 12.3726 100.679 12.5695C100.413 13.1788 100.465 14.2986 100.395 15.4896C100.265 17.6922 100.207 17.528 100.441 18.4045C100.548 18.8075 100.504 19.1432 100.237 19.453C99.8053 19.9549 98.842 19.8165 97.8597 20.6296Z" fill="#B3EFFF"/>
<path d="M101.1 14.8733L101.172 19.4382C101.172 19.4382 101.575 17.7339 101.685 17.0645C101.902 15.7408 102.362 14.6333 102.063 13.1527C101.987 12.7778 101.284 12.5599 101.284 12.5599C101.284 12.5599 101.078 13.4617 101.1 14.8733Z" fill="#B3EFFF"/>
<path d="M90.3085 25.7431C90.0759 25.275 90.5076 24.4196 90.5076 24.4196C90.5076 24.4196 90.9034 24.8113 91.2304 24.9033C92.9434 25.3854 95.1484 20.428 94.9529 18.5057C94.8596 17.588 93.8199 16.4332 93.8199 16.4332C93.8199 16.4332 97.3118 16.3504 97.8163 18.6804C98.0831 19.9127 96.4133 20.408 95.5979 21.026C95.0862 21.4139 93.3788 25.0893 93.3788 25.0893C93.3788 25.0893 92.2412 26.2076 91.4739 26.3848C90.9677 26.5017 90.5397 26.2084 90.3085 25.7431Z" stroke="black"/>
<path d="M97.8597 20.6296C96.748 21.5497 94.4545 24.0193 94.4545 24.0193C94.4545 24.0193 95.3334 21.9019 95.9279 21.4294C96.6342 20.8681 97.0626 20.6512 97.6597 20.1467C98.5392 19.4036 98.7172 18.6916 98.3088 17.6151C97.841 16.382 95.9442 15.8351 95.9442 15.8351C95.9442 15.8351 97.4358 14.8159 98.3371 14.0919C99.2872 13.3288 100.67 12.0195 100.67 12.0195C100.67 12.0195 100.764 12.3726 100.679 12.5695C100.413 13.1788 100.465 14.2986 100.395 15.4896C100.265 17.6922 100.207 17.528 100.441 18.4045C100.548 18.8075 100.504 19.1432 100.237 19.453C99.8053 19.9549 98.842 19.8165 97.8597 20.6296Z" stroke="black"/>
<path d="M101.1 14.8733L101.172 19.4382C101.172 19.4382 101.575 17.7339 101.685 17.0645C101.902 15.7408 102.362 14.6333 102.063 13.1527C101.987 12.7778 101.284 12.5599 101.284 12.5599C101.284 12.5599 101.078 13.4617 101.1 14.8733Z" stroke="black"/>
<path d="M114.366 23.4914C113.937 23.8469 113.112 24.1714 113.112 24.1714L116.434 25.4941C116.434 25.4941 116.222 24.2599 116.126 23.4635C115.927 21.7987 115.893 19.1763 115.893 19.1763L115.228 18.8568C115.228 18.8568 115.784 22.317 114.366 23.4914Z" fill="#B3EFFF"/>
<path d="M118.912 29.1406L118.181 28.1069C118.181 28.1069 118.515 29.3604 118.818 30.1323C119.246 31.2234 120.18 32.8063 120.18 32.8063L121.248 34.2197L121.034 34.6081C121.237 34.6966 121.677 34.873 121.809 34.8709L122.798 34.8553C122.798 34.8553 121.377 33.7554 120.675 32.7984C119.767 31.5585 118.912 29.1406 118.912 29.1406Z" fill="#B3EFFF"/>
<path d="M118.93 23.3089C118.486 23.0592 117.554 22.5495 117.377 22.5083L117.57 24.2656C117.57 24.2656 118.209 24.315 118.617 24.3591C119.308 24.4338 120.381 24.6062 120.381 24.6062C120.381 24.6062 119.374 23.5586 118.93 23.3089Z" fill="#B3EFFF"/>
<path d="M123.346 31.2157C122.687 30.2838 121.441 29.0454 121.441 29.0454L122.47 31.4496C122.47 31.4496 122.785 31.9685 123.033 32.2659C123.393 32.6976 123.589 32.9906 124.093 33.2393C124.585 33.4816 125.473 33.4925 125.473 33.4925C125.473 33.4925 124.078 32.2494 123.346 31.2157Z" fill="#B3EFFF"/>
<path d="M120.735 34.0074C120.735 34.0074 118.169 30.235 117.716 27.4538C117.671 27.1762 117.619 26.7402 117.619 26.7402M120.735 34.0074C120.735 34.0074 114.746 32.6455 110.96 31.5766C107.057 30.4747 101.063 28.4326 101.063 28.4326M120.735 34.0074L120.21 34.6772M116.657 19.6589C116.647 19.0788 116.667 18.1734 116.667 18.1734M116.657 19.6589C116.667 20.1862 116.707 20.7671 116.766 21.3625M116.657 19.6589L116.766 21.3625M99.9771 1.54905C99.9771 1.54905 104.052 2.91371 106.563 4.03033C109.426 5.30356 111.002 6.11457 113.664 7.76872C114.883 8.5267 116.722 9.81075 116.722 9.81075L116.667 18.1734M99.9771 1.54905C99.9771 1.54905 100.4 4.2507 100.488 5.99692C100.581 7.86451 100.398 10.7844 100.398 10.7844M99.9771 1.54905L98.6492 2.80204M100.398 10.7844C100.398 10.7844 105.226 12.9928 108.322 14.3997C111.579 15.879 116.667 18.1734 116.667 18.1734M100.398 10.7844L98.8237 12.0856M94.6968 15.4956L93.1612 15.795M94.6968 15.4956C94.6968 15.4956 94.895 12.6756 94.7886 10.8732C94.697 9.31968 94.2846 6.92031 94.2846 6.92031M94.6968 15.4956L96.1222 14.3178M94.6968 15.4956C94.6968 15.4956 95.9951 15.7368 96.688 16.1792C97.2769 16.5552 97.6411 16.8093 97.973 17.4242C98.2057 17.8552 98.2798 18.1777 98.2824 18.6845C98.2904 20.2227 95.994 20.9861 95.5067 21.4791C95.0194 21.9721 94.7334 23.5918 93.8523 24.6959C93.5048 25.1313 92.8786 25.7382 92.8786 25.7382M93.1612 15.795C93.1612 15.795 93.4345 13.6843 93.4363 12.3249C93.4386 10.6659 93.0393 8.09527 93.0393 8.09527L94.2846 6.92031M93.1612 15.795C93.1612 15.795 91.7094 16.1329 90.8059 16.4374C88.439 17.235 88.1046 17.8661 85.8016 18.8328C84.8816 19.2191 83.1999 19.8042 82.0293 20.2124C81.1222 20.5287 80.163 20.4374 79.1739 20.508C78.4058 20.5629 77.664 20.7762 77.4846 21.525C77.3776 21.9716 77.5739 22.3488 77.7716 22.7633C77.9693 23.1777 78.5951 23.4856 79.3119 23.7827C80.1981 24.15 81.8688 24.4613 81.8688 24.4613M94.2846 6.92031L95.8578 5.43587M95.8578 5.43587C95.8578 5.43587 96.047 7.02444 96.1192 8.04651C96.2917 10.4895 96.1222 14.3178 96.1222 14.3178M95.8578 5.43587L97.3213 4.05503M96.1222 14.3178L97.5476 13.14M97.5476 13.14C97.5476 13.14 97.5744 10.2899 97.5561 8.46385C97.5471 7.5617 97.5338 7.05601 97.5195 6.15394C97.5052 5.25186 97.3213 4.05503 97.3213 4.05503M97.5476 13.14L98.8237 12.0856M97.3213 4.05503L98.6492 2.80204M98.6492 2.80204C98.6492 2.80204 98.8025 3.92468 98.871 4.64722C99.1449 7.53918 98.8237 12.0856 98.8237 12.0856M81.8688 24.4613C81.8688 24.4613 82.9474 24.1854 83.6992 23.906C84.6451 23.5544 85.128 23.3545 85.8445 22.7323C86.561 22.1101 87.3618 21.278 87.3618 21.278M81.8688 24.4613C81.8688 24.4613 79.7324 25.3592 80.3528 26.1888C81.6398 27.9101 85.8936 27.4862 86.2759 27.3151C86.6583 27.144 87.6222 26.6803 88.0691 25.9114C88.3834 25.3706 88.6838 24.428 88.6838 24.428M88.6838 24.428C88.6838 24.428 88.9274 23.9094 89.1083 23.4037C89.4289 22.5079 89.8158 21.6966 89.8158 21.6966M88.6838 24.428C88.6838 24.428 88.4396 25.6459 88.8007 26.0768C89.0784 26.4081 89.7869 26.7106 90.1177 26.7604C90.8135 26.8651 91.834 26.6884 92.3917 26.2594C92.6125 26.0896 92.8786 25.7382 92.8786 25.7382M92.8786 25.7382L92.998 26.3354M116.844 38.965L115.882 40.1905L96.7039 34.5529C96.7039 34.5529 94.3202 31.5844 93.5954 29.321C93.2328 28.1886 92.998 26.3354 92.998 26.3354M116.844 38.965C116.844 38.965 110.969 37.458 107.24 36.3665C103.394 35.2406 97.4538 33.2758 97.4538 33.2758C97.4538 33.2758 95.8819 30.9634 95.3004 29.294C94.7416 27.6899 94.5629 26.7135 94.5175 25.0155M116.844 38.965L117.716 37.8547M94.5175 25.0155C93.9241 25.5309 92.998 26.3354 92.998 26.3354M94.5175 25.0155C95.0469 24.5345 95.3438 24.2648 95.8733 23.7838M95.8733 23.7838C95.8681 24.7954 95.9138 25.368 96.0792 26.366C96.4758 28.7596 98.3164 32.1619 98.3164 32.1619L117.716 37.8547M95.8733 23.7838C96.4225 23.195 96.7304 22.8649 97.2797 22.2762M117.716 37.8547L118.632 36.6867M118.632 36.6867C118.632 36.6867 111.318 34.7897 106.697 33.3495C103.72 32.4215 99.1205 30.8289 99.1205 30.8289C99.1205 30.8289 97.9175 28.163 97.5641 26.3425C97.2607 24.7798 97.1968 23.8659 97.2797 22.2762M118.632 36.6867L119.684 35.3471M97.2797 22.2762C97.7451 21.8177 98.006 21.5606 98.4714 21.1021M98.4714 21.1021C98.4965 22.5022 98.5698 23.2917 98.8029 24.6726C99.1282 26.5991 100.145 29.4924 100.145 29.4924C100.145 29.4924 106.224 31.7848 110.212 32.9637C113.87 34.0451 119.684 35.3471 119.684 35.3471M98.4714 21.1021C99.13 20.6405 100.158 19.9201 100.158 19.9201M119.684 35.3471L120.21 34.6772M101.063 28.4326L98.0069 32.5519M101.063 28.4326C101.063 28.4326 100.398 25.8146 100.224 24.0999C100.059 22.4758 100.158 19.9201 100.158 19.9201M100.158 19.9201L117.619 26.7402M117.619 26.7402C117.619 26.7402 117.019 23.9178 116.766 21.3625M116.766 21.3625C116.766 21.3625 118.797 22.1443 119.9 22.9632C121.92 24.4615 122.486 26.443 123.669 28.1847C124.359 29.2012 124.736 29.7911 125.579 30.685C126.498 31.6597 128.475 31.5879 128.199 32.899C127.983 33.931 127.011 34.2645 125.968 34.4196C124.993 34.5646 123.537 33.743 123.537 33.743M123.537 33.743C123.537 33.743 122.674 32.8028 122.246 32.1131C121.4 30.7512 120.919 28.2282 120.919 28.2282M123.537 33.743C123.537 33.743 123.834 34.6572 123.559 35.1179C123.335 35.4911 123.044 35.5951 122.633 35.7377C122.126 35.9137 121.753 35.9678 121.258 35.7595C120.852 35.5885 120.421 35.0026 120.421 35.0026L120.21 34.6772" stroke="#080F66" stroke-linecap="round"/>
<path d="M100.603 12.3767C100.603 12.3767 100.411 14.5262 100.378 15.571C100.334 17.002 100.307 18.0476 100.307 18.0476" stroke="#080F66" stroke-linecap="round"/>
</svg>
